<svg width="194" height="128" viewBox="0 0 194 128" fill="none" xmlns="http://www.w3.org/2000/svg">
<g filter="url(#filter0_d_209_98)">
<path d="M4 32.711C4 30.2497 4.90766 27.875 6.54925 26.0412L26.8798 3.33019C28.7768 1.21108 31.4864 0 34.3306 0H180C185.523 0 190 4.47715 190 10V110C190 115.523 185.523 120 180 120H14C8.47715 120 4 115.523 4 110V32.711Z" fill="#FFE3E3"/>
</g>
<rect opacity="0.5" x="12" y="40.0315" width="43.563" height="44.1165" rx="8" transform="rotate(-45.4252 12 40.0315)" fill="#CE5858"/>
<path fill-rule="evenodd" clip-rule="evenodd" d="M32.33 27.763C30.5 29.7787 30.5 33.0182 30.5 39.5C30.5 45.9817 30.5 49.2226 32.33 51.2356C34.1625 53.25 37.1075 53.25 43 53.25C48.8925 53.25 51.8387 53.25 53.6688 51.2356C55.5 49.224 55.5 45.9817 55.5 39.5C55.5 33.0182 55.5 29.7774 53.6688 27.763C51.84 25.75 48.8925 25.75 43 25.75C37.1075 25.75 34.1613 25.75 32.33 27.763ZM41.18 33.3359C41.2649 33.2377 41.3313 33.1222 41.3756 32.9958C41.4199 32.8694 41.4411 32.7346 41.438 32.5992C41.4349 32.4638 41.4076 32.3304 41.3577 32.2066C41.3077 32.0828 41.2361 31.971 41.1469 31.8777C41.0577 31.7843 40.9526 31.7112 40.8377 31.6625C40.7228 31.6138 40.6003 31.5905 40.4772 31.5939C40.3541 31.5973 40.2328 31.6273 40.1203 31.6822C40.0077 31.7372 39.9061 31.816 39.8212 31.9141L36.9288 35.2554L36.1788 34.3891C36.0948 34.2871 35.9931 34.2045 35.8797 34.1464C35.7663 34.0882 35.6435 34.0556 35.5185 34.0505C35.3934 34.0454 35.2688 34.0679 35.1517 34.1166C35.0347 34.1653 34.9278 34.2393 34.8371 34.3342C34.7465 34.4291 34.6741 34.543 34.6241 34.6691C34.5742 34.7953 34.5476 34.9312 34.5462 35.0688C34.5447 35.2065 34.5683 35.343 34.6155 35.4704C34.6627 35.5979 34.7327 35.7136 34.8212 35.8109L36.25 37.4609C36.3376 37.562 36.4429 37.6424 36.5595 37.6974C36.6762 37.7524 36.8018 37.7808 36.9288 37.7808C37.0557 37.7808 37.1813 37.7524 37.298 37.6974C37.4146 37.6424 37.5199 37.562 37.6075 37.4609L41.18 33.3359ZM44.25 34.3437C44.0014 34.3437 43.7629 34.4524 43.5871 34.6458C43.4113 34.8392 43.3125 35.1015 43.3125 35.375C43.3125 35.6485 43.4113 35.9108 43.5871 36.1042C43.7629 36.2976 44.0014 36.4062 44.25 36.4062H50.5C50.7486 36.4062 50.9871 36.2976 51.1629 36.1042C51.3387 35.9108 51.4375 35.6485 51.4375 35.375C51.4375 35.1015 51.3387 34.8392 51.1629 34.6458C50.9871 34.4524 50.7486 34.3437 50.5 34.3437H44.25ZM41.1788 42.9609C41.2673 42.8636 41.3373 42.7479 41.3845 42.6204C41.4317 42.493 41.4553 42.3565 41.4538 42.2188C41.4524 42.0812 41.4258 41.9453 41.3759 41.8192C41.3259 41.693 41.2535 41.5791 41.1629 41.4842C41.0722 41.3893 40.9653 41.3153 40.8483 41.2666C40.7312 41.2179 40.6066 41.1954 40.4815 41.2005C40.3565 41.2056 40.2337 41.2382 40.1203 41.2964C40.0069 41.3545 39.9052 41.4371 39.8212 41.5391L36.9288 44.8804L36.1788 44.0141C36.0948 43.9121 35.9931 43.8295 35.8797 43.7714C35.7663 43.7132 35.6435 43.6806 35.5185 43.6755C35.3934 43.6704 35.2688 43.6929 35.1517 43.7416C35.0347 43.7903 34.9278 43.8643 34.8371 43.9592C34.7465 44.0541 34.6741 44.168 34.6241 44.2941C34.5742 44.4203 34.5476 44.5562 34.5462 44.6938C34.5447 44.8315 34.5683 44.968 34.6155 45.0954C34.6627 45.2229 34.7327 45.3386 34.8212 45.4359L36.25 47.0859C36.3376 47.187 36.4429 47.2674 36.5595 47.3224C36.6762 47.3774 36.8018 47.4058 36.9288 47.4058C37.0557 47.4058 37.1813 47.3774 37.298 47.3224C37.4146 47.2674 37.5199 47.187 37.6075 47.0859L41.1788 42.9609ZM44.25 43.9687C44.0014 43.9687 43.7629 44.0774 43.5871 44.2708C43.4113 44.4642 43.3125 44.7265 43.3125 45C43.3125 45.2735 43.4113 45.5358 43.5871 45.7292C43.7629 45.9226 44.0014 46.0312 44.25 46.0312H50.5C50.7486 46.0312 50.9871 45.9226 51.1629 45.7292C51.3387 45.5358 51.4375 45.2735 51.4375 45C51.4375 44.7265 51.3387 44.4642 51.1629 44.2708C50.9871 44.0774 50.7486 43.9687 50.5 43.9687H44.25Z" fill="#AD6969"/>
<defs>
<filter id="filter0_d_209_98" x="0" y="0" width="194" height="128" filterUnits="userSpaceOnUse" color-interpolation-filters="sRGB">
<feFlood flood-opacity="0" result="BackgroundImageFix"/>
<feColorMatrix in="SourceAlpha" type="matrix" values="0 0 0 0 0 0 0 0 0 0 0 0 0 0 0 0 0 0 127 0" result="hardAlpha"/>
<feOffset dy="4"/>
<feGaussianBlur stdDeviation="2"/>
<feComposite in2="hardAlpha" operator="out"/>
<feColorMatrix type="matrix" values="0 0 0 0 0 0 0 0 0 0 0 0 0 0 0 0 0 0 0.5 0"/>
<feBlend mode="normal" in2="BackgroundImageFix" result="effect1_dropShadow_209_98"/>
<feBlend mode="normal" in="SourceGraphic" in2="effect1_dropShadow_209_98" result="shape"/>
</filter>
</defs>
</svg>
