<svg width="420" height="91" viewBox="0 0 420 91" fill="none" xmlns="http://www.w3.org/2000/svg">
<g filter="url(#filter0_d_80_1087)">
<path d="M4 41.5C4 18.5802 22.5802 0 45.5 0H374.5C397.42 0 416 18.5802 416 41.5C416 64.4198 397.42 83 374.5 83H45.5C22.5802 83 4 64.4198 4 41.5Z" fill="#E6FFDB" fill-opacity="0.6" shape-rendering="crispEdges"/>
<path d="M4.25 41.5C4.25 18.7183 22.7183 0.25 45.5 0.25H374.5C397.282 0.25 415.75 18.7183 415.75 41.5C415.75 64.2817 397.282 82.75 374.5 82.75H45.5C22.7183 82.75 4.25 64.2817 4.25 41.5Z" stroke="black" stroke-opacity="0.64" stroke-width="0.5" shape-rendering="crispEdges"/>
</g>
<defs>
<filter id="filter0_d_80_1087" x="0" y="0" width="420" height="91" filterUnits="userSpaceOnUse" color-interpolation-filters="sRGB">
<feFlood flood-opacity="0" result="BackgroundImageFix"/>
<feColorMatrix in="SourceAlpha" type="matrix" values="0 0 0 0 0 0 0 0 0 0 0 0 0 0 0 0 0 0 127 0" result="hardAlpha"/>
<feOffset dy="4"/>
<feGaussianBlur stdDeviation="2"/>
<feComposite in2="hardAlpha" operator="out"/>
<feColorMatrix type="matrix" values="0 0 0 0 0 0 0 0 0 0 0 0 0 0 0 0 0 0 0.25 0"/>
<feBlend mode="normal" in2="BackgroundImageFix" result="effect1_dropShadow_80_1087"/>
<feBlend mode="normal" in="SourceGraphic" in2="effect1_dropShadow_80_1087" result="shape"/>
</filter>
</defs>
</svg>
