<svg width="66" height="41" viewBox="0 0 66 41" fill="none" xmlns="http://www.w3.org/2000/svg">
<path d="M37.1641 7.5L33.1861 3.5L29.1641 7.5M33.1861 3.521V15.5M30.1641 10.5H28.1641C27.6336 10.5 27.1249 10.7107 26.7498 11.0858C26.3748 11.4609 26.1641 11.9696 26.1641 12.5V16.5C26.1641 17.0304 26.3748 17.5391 26.7498 17.9142C27.1249 18.2893 27.6336 18.5 28.1641 18.5H38.1641C38.6945 18.5 39.2032 18.2893 39.5783 17.9142C39.9533 17.5391 40.1641 17.0304 40.1641 16.5V12.5C40.1641 11.9696 39.9533 11.4609 39.5783 11.0858C39.2032 10.7107 38.6945 10.5 38.1641 10.5H36.1641" stroke="black" stroke-linecap="round" stroke-linejoin="round"/>
<path d="M6.76231 31.9127L5.77088 32.1933C5.70853 32.0281 5.61655 31.8675 5.49496 31.7116C5.37649 31.5526 5.21437 31.4217 5.0086 31.3188C4.80283 31.2159 4.53938 31.1645 4.21826 31.1645C3.77866 31.1645 3.41233 31.2658 3.11926 31.4684C2.82932 31.668 2.68434 31.9221 2.68434 32.2307C2.68434 32.5051 2.78411 32.7218 2.98364 32.8808C3.18318 33.0398 3.49495 33.1723 3.91896 33.2783L4.98522 33.5402C5.62747 33.696 6.10603 33.9345 6.42092 34.2557C6.73581 34.5737 6.89326 34.9837 6.89326 35.4856C6.89326 35.8971 6.77478 36.265 6.53784 36.5893C6.30401 36.9135 5.97665 37.1692 5.55576 37.3562C5.13487 37.5433 4.64539 37.6368 4.08731 37.6368C3.35465 37.6368 2.74826 37.4778 2.26813 37.1598C1.788 36.8418 1.48402 36.3773 1.3562 35.7662L2.40375 35.5043C2.50351 35.8909 2.69214 36.1809 2.96961 36.3742C3.25021 36.5675 3.61654 36.6641 4.06861 36.6641C4.58303 36.6641 4.99145 36.555 5.29387 36.3367C5.59941 36.1154 5.75217 35.8504 5.75217 35.5417C5.75217 35.2923 5.66488 35.0834 5.49029 34.9151C5.31569 34.7436 5.04757 34.6158 4.68592 34.5316L3.48871 34.251C2.83087 34.0951 2.34763 33.8535 2.03898 33.5261C1.73344 33.1956 1.58067 32.7826 1.58067 32.2868C1.58067 31.8815 1.69447 31.523 1.92206 31.2112C2.15277 30.8995 2.4661 30.6547 2.86205 30.477C3.26112 30.2993 3.71319 30.2104 4.21826 30.2104C4.9291 30.2104 5.48717 30.3663 5.89247 30.6781C6.30089 30.9899 6.59084 31.4014 6.76231 31.9127ZM9.65828 33.166V37.4872H8.55461V27.9096H9.65828V31.4263H9.75181C9.92017 31.0553 10.1727 30.7607 10.5094 30.5425C10.8492 30.3211 11.3013 30.2104 11.8656 30.2104C12.3551 30.2104 12.7838 30.3086 13.1517 30.5051C13.5196 30.6984 13.8048 30.9961 14.0075 31.3983C14.2133 31.7974 14.3161 32.3055 14.3161 32.9228V37.4872H13.2125V32.9977C13.2125 32.4271 13.0644 31.986 12.7682 31.6742C12.4751 31.3593 12.0683 31.2019 11.5476 31.2019C11.186 31.2019 10.8617 31.2783 10.5749 31.431C10.2912 31.5838 10.0667 31.8067 9.90146 32.0998C9.73934 32.3928 9.65828 32.7483 9.65828 33.166ZM18.4491 37.6555C17.9939 37.6555 17.5808 37.5698 17.2098 37.3983C16.8388 37.2237 16.5441 36.9728 16.3259 36.6454C16.1077 36.3149 15.9985 35.9159 15.9985 35.4482C15.9985 35.0367 16.0796 34.7031 16.2417 34.4474C16.4038 34.1886 16.6205 33.986 16.8918 33.8395C17.163 33.6929 17.4623 33.5838 17.7897 33.5121C18.1202 33.4373 18.4522 33.378 18.7858 33.3344C19.2223 33.2783 19.5761 33.2362 19.8474 33.2081C20.1217 33.1769 20.3213 33.1255 20.446 33.0538C20.5738 32.9821 20.6377 32.8574 20.6377 32.6797V32.6423C20.6377 32.1808 20.5114 31.8223 20.2589 31.5666C20.0095 31.311 19.6307 31.1832 19.1225 31.1832C18.5956 31.1832 18.1825 31.2985 17.8832 31.5292C17.5839 31.7599 17.3735 32.0062 17.2519 32.2681L16.2043 31.894C16.3914 31.4575 16.6408 31.1177 16.9526 30.8745C17.2675 30.6282 17.6104 30.4567 17.9814 30.3601C18.3555 30.2603 18.7234 30.2104 19.0851 30.2104C19.3158 30.2104 19.5808 30.2385 19.8801 30.2946C20.1825 30.3476 20.474 30.4583 20.7546 30.6266C21.0383 30.795 21.2737 31.0491 21.4608 31.3889C21.6478 31.7288 21.7414 32.1839 21.7414 32.7545V37.4872H20.6377V36.5145H20.5816C20.5068 36.6703 20.3821 36.8371 20.2075 37.0148C20.0329 37.1926 19.8006 37.3438 19.5107 37.4685C19.2207 37.5932 18.8668 37.6555 18.4491 37.6555ZM18.6174 36.6641C19.0539 36.6641 19.4218 36.5784 19.7211 36.4069C20.0235 36.2354 20.2511 36.0141 20.4039 35.7428C20.5598 35.4716 20.6377 35.1863 20.6377 34.887V33.8769C20.5909 33.933 20.4881 33.9844 20.3291 34.0312C20.1732 34.0748 19.9923 34.1138 19.7866 34.1481C19.5839 34.1793 19.3859 34.2073 19.1926 34.2323C19.0025 34.2541 18.8481 34.2728 18.7297 34.2884C18.4428 34.3258 18.1747 34.3866 17.9253 34.4708C17.679 34.5519 17.4795 34.675 17.3267 34.8402C17.177 35.0024 17.1022 35.2237 17.1022 35.5043C17.1022 35.8878 17.2441 36.1777 17.5278 36.3742C17.8146 36.5675 18.1778 36.6641 18.6174 36.6641ZM23.7558 37.4872V30.304H24.8221V31.3889H24.8969C25.0278 31.0335 25.2648 30.7451 25.6077 30.5238C25.9507 30.3024 26.3373 30.1917 26.7675 30.1917C26.8486 30.1917 26.9499 30.1933 27.0715 30.1964C27.1931 30.1995 27.2851 30.2042 27.3474 30.2104V31.3328C27.31 31.3235 27.2243 31.3094 27.0902 31.2907C26.9593 31.2689 26.8205 31.258 26.674 31.258C26.3248 31.258 26.013 31.3313 25.7387 31.4778C25.4674 31.6212 25.2523 31.8207 25.0933 32.0764C24.9374 32.3289 24.8595 32.6173 24.8595 32.9416V37.4872H23.7558ZM31.4488 37.6368C30.7566 37.6368 30.1596 37.4841 29.6576 37.1785C29.1588 36.8699 28.7738 36.4396 28.5025 35.8878C28.2344 35.3328 28.1003 34.6875 28.1003 33.9517C28.1003 33.2159 28.2344 32.5674 28.5025 32.0062C28.7738 31.4419 29.151 31.0023 29.6343 30.6874C30.1206 30.3694 30.6881 30.2104 31.3365 30.2104C31.7107 30.2104 32.0801 30.2728 32.4449 30.3975C32.8097 30.5222 33.1417 30.7249 33.441 31.0055C33.7403 31.2829 33.9788 31.6508 34.1565 32.1091C34.3342 32.5674 34.4231 33.1317 34.4231 33.802V34.2697H28.886V33.3157H33.3007C33.3007 32.9104 33.2196 32.5487 33.0575 32.2307C32.8985 31.9127 32.6709 31.6617 32.3747 31.4778C32.0817 31.2938 31.7356 31.2019 31.3365 31.2019C30.8969 31.2019 30.5166 31.311 30.1955 31.5292C29.8774 31.7444 29.6327 32.0249 29.4612 32.371C29.2898 32.7171 29.204 33.0881 29.204 33.484V34.1201C29.204 34.6625 29.2975 35.1224 29.4846 35.4996C29.6748 35.8738 29.9382 36.159 30.275 36.3555C30.6117 36.5488 31.0029 36.6454 31.4488 36.6454C31.7387 36.6454 32.0006 36.6049 32.2344 36.5238C32.4714 36.4396 32.6756 36.3149 32.8471 36.1497C33.0185 35.9813 33.151 35.7724 33.2446 35.523L34.3108 35.8223C34.1986 36.184 34.01 36.502 33.745 36.7763C33.48 37.0476 33.1526 37.2596 32.7629 37.4124C32.3732 37.562 31.9351 37.6368 31.4488 37.6368ZM38.8144 37.6368C38.2158 37.6368 37.6873 37.4856 37.229 37.1832C36.7707 36.8777 36.4122 36.4474 36.1534 35.8925C35.8946 35.3344 35.7653 34.675 35.7653 33.9143C35.7653 33.1598 35.8946 32.5051 36.1534 31.9501C36.4122 31.3952 36.7723 30.9665 37.2337 30.6641C37.6951 30.3616 38.2282 30.2104 38.8331 30.2104C39.3007 30.2104 39.6702 30.2884 39.9414 30.4443C40.2158 30.597 40.4247 30.7716 40.5681 30.968C40.7146 31.1613 40.8284 31.3203 40.9095 31.4451H41.003V27.9096H42.1067V37.4872H41.0404V36.3835H40.9095C40.8284 36.5145 40.7131 36.6797 40.5634 36.8792C40.4138 37.0756 40.2002 37.2518 39.9227 37.4077C39.6452 37.5604 39.2758 37.6368 38.8144 37.6368ZM38.964 36.6454C39.4067 36.6454 39.7809 36.53 40.0864 36.2993C40.3919 36.0655 40.6242 35.7428 40.7832 35.3313C40.9422 34.9166 41.0217 34.4381 41.0217 33.8956C41.0217 33.3593 40.9438 32.8901 40.7879 32.4879C40.632 32.0826 40.4013 31.7677 40.0958 31.5433C39.7902 31.3157 39.413 31.2019 38.964 31.2019C38.4964 31.2019 38.1067 31.3219 37.7949 31.562C37.4862 31.7989 37.254 32.1216 37.0981 32.53C36.9453 32.9353 36.8689 33.3905 36.8689 33.8956C36.8689 34.4069 36.9469 34.8714 37.1028 35.2892C37.2618 35.7038 37.4956 36.0343 37.8042 36.2806C38.116 36.5238 38.5026 36.6454 38.964 36.6454ZM49.0888 27.9096V37.4872H47.9851V27.9096H49.0888ZM51.1103 37.4872V30.304H52.2139V37.4872H51.1103ZM51.6714 29.1068C51.4563 29.1068 51.2708 29.0335 51.1149 28.887C50.9622 28.7404 50.8858 28.5643 50.8858 28.3585C50.8858 28.1527 50.9622 27.9766 51.1149 27.8301C51.2708 27.6835 51.4563 27.6103 51.6714 27.6103C51.8866 27.6103 52.0705 27.6835 52.2233 27.8301C52.3792 27.9766 52.4571 28.1527 52.4571 28.3585C52.4571 28.5643 52.3792 28.7404 52.2233 28.887C52.0705 29.0335 51.8866 29.1068 51.6714 29.1068ZM59.3235 31.9127L58.3321 32.1933C58.2697 32.0281 58.1777 31.8675 58.0561 31.7116C57.9377 31.5526 57.7755 31.4217 57.5698 31.3188C57.364 31.2159 57.1006 31.1645 56.7794 31.1645C56.3398 31.1645 55.9735 31.2658 55.6804 31.4684C55.3905 31.668 55.2455 31.9221 55.2455 32.2307C55.2455 32.5051 55.3453 32.7218 55.5448 32.8808C55.7443 33.0398 56.0561 33.1723 56.4801 33.2783L57.5464 33.5402C58.1886 33.696 58.6672 33.9345 58.9821 34.2557C59.297 34.5737 59.4544 34.9837 59.4544 35.4856C59.4544 35.8971 59.336 36.265 59.099 36.5893C58.8652 36.9135 58.5378 37.1692 58.1169 37.3562C57.696 37.5433 57.2066 37.6368 56.6485 37.6368C55.9158 37.6368 55.3094 37.4778 54.8293 37.1598C54.3492 36.8418 54.0452 36.3773 53.9174 35.7662L54.9649 35.5043C55.0647 35.8909 55.2533 36.1809 55.5308 36.3742C55.8114 36.5675 56.1777 36.6641 56.6298 36.6641C57.1442 36.6641 57.5526 36.555 57.855 36.3367C58.1606 36.1154 58.3133 35.8504 58.3133 35.5417C58.3133 35.2923 58.2261 35.0834 58.0515 34.9151C57.8769 34.7436 57.6087 34.6158 57.2471 34.5316L56.0499 34.251C55.392 34.0951 54.9088 33.8535 54.6001 33.5261C54.2946 33.1956 54.1418 32.7826 54.1418 32.2868C54.1418 31.8815 54.2556 31.523 54.4832 31.2112C54.7139 30.8995 55.0273 30.6547 55.4232 30.477C55.8223 30.2993 56.2744 30.2104 56.7794 30.2104C57.4903 30.2104 58.0483 30.3663 58.4536 30.6781C58.8621 30.9899 59.152 31.4014 59.3235 31.9127ZM64.2397 30.304V31.2393H60.5172V30.304H64.2397ZM61.6021 28.583H62.7058V35.4295C62.7058 35.7413 62.751 35.9751 62.8414 36.131C62.935 36.2837 63.0534 36.3866 63.1969 36.4396C63.3434 36.4895 63.4977 36.5145 63.6598 36.5145C63.7814 36.5145 63.8812 36.5082 63.9591 36.4957C64.0371 36.4802 64.0994 36.4677 64.1462 36.4583L64.3707 37.4498C64.2959 37.4778 64.1914 37.5059 64.0573 37.5339C63.9233 37.5651 63.7534 37.5807 63.5476 37.5807C63.2358 37.5807 62.9303 37.5137 62.631 37.3796C62.3348 37.2456 62.0885 37.0413 61.8921 36.767C61.6988 36.4926 61.6021 36.1466 61.6021 35.7288V28.583Z" fill="black"/>
</svg>
