<svg width="35" height="41" viewBox="0 0 35 41" fill="none" xmlns="http://www.w3.org/2000/svg">
<path d="M21.5 7.5L17.522 3.5L13.5 7.5M17.522 3.521V15.5M14.5 10.5H12.5C11.9696 10.5 11.4609 10.7107 11.0858 11.0858C10.7107 11.4609 10.5 11.9696 10.5 12.5V16.5C10.5 17.0304 10.7107 17.5391 11.0858 17.9142C11.4609 18.2893 11.9696 18.5 12.5 18.5H22.5C23.0304 18.5 23.5391 18.2893 23.9142 17.9142C24.2893 17.5391 24.5 17.0304 24.5 16.5V12.5C24.5 11.9696 24.2893 11.4609 23.9142 11.0858C23.5391 10.7107 23.0304 10.5 22.5 10.5H20.5" stroke="black" stroke-linecap="round" stroke-linejoin="round"/>
<path d="M6.09825 31.9127L5.10682 32.1933C5.04446 32.0281 4.95249 31.8675 4.8309 31.7116C4.71243 31.5526 4.55031 31.4217 4.34454 31.3188C4.13877 31.2159 3.87532 31.1645 3.5542 31.1645C3.1146 31.1645 2.74827 31.2658 2.4552 31.4684C2.16525 31.668 2.02028 31.9221 2.02028 32.2307C2.02028 32.5051 2.12005 32.7218 2.31958 32.8808C2.51911 33.0398 2.83089 33.1723 3.25489 33.2783L4.32115 33.5402C4.9634 33.696 5.44197 33.9345 5.75686 34.2557C6.07175 34.5737 6.2292 34.9837 6.2292 35.4856C6.2292 35.8971 6.11072 36.265 5.87378 36.5893C5.63995 36.9135 5.31259 37.1692 4.8917 37.3562C4.4708 37.5433 3.98132 37.6368 3.42325 37.6368C2.69059 37.6368 2.08419 37.4778 1.60406 37.1598C1.12394 36.8418 0.819959 36.3773 0.692133 35.7662L1.73969 35.5043C1.83945 35.8909 2.02807 36.1809 2.30555 36.3742C2.58614 36.5675 2.95248 36.6641 3.40455 36.6641C3.91897 36.6641 4.32739 36.555 4.62981 36.3367C4.93534 36.1154 5.08811 35.8504 5.08811 35.5417C5.08811 35.2923 5.00082 35.0834 4.82622 34.9151C4.65163 34.7436 4.38351 34.6158 4.02185 34.5316L2.82465 34.251C2.16681 34.0951 1.68357 33.8535 1.37491 33.5261C1.06938 33.1956 0.916608 32.7826 0.916608 32.2868C0.916608 31.8815 1.0304 31.523 1.258 31.2112C1.48871 30.8995 1.80204 30.6547 2.19799 30.477C2.59706 30.2993 3.04913 30.2104 3.5542 30.2104C4.26503 30.2104 4.82311 30.3663 5.22841 30.6781C5.63683 30.9899 5.92678 31.4014 6.09825 31.9127ZM8.99422 33.166V37.4872H7.89055V27.9096H8.99422V31.4263H9.08775C9.25611 31.0553 9.50864 30.7607 9.84536 30.5425C10.1852 30.3211 10.6373 30.2104 11.2016 30.2104C11.691 30.2104 12.1197 30.3086 12.4876 30.5051C12.8555 30.6984 13.1408 30.9961 13.3434 31.3983C13.5492 31.7974 13.6521 32.3055 13.6521 32.9228V37.4872H12.5484V32.9977C12.5484 32.4271 12.4003 31.986 12.1041 31.6742C11.8111 31.3593 11.4042 31.2019 10.8836 31.2019C10.5219 31.2019 10.1977 31.2783 9.91083 31.431C9.62712 31.5838 9.40264 31.8067 9.2374 32.0998C9.07528 32.3928 8.99422 32.7483 8.99422 33.166ZM17.785 37.6555C17.3298 37.6555 16.9167 37.5698 16.5457 37.3983C16.1747 37.2237 15.8801 36.9728 15.6618 36.6454C15.4436 36.3149 15.3345 35.9159 15.3345 35.4482C15.3345 35.0367 15.4155 34.7031 15.5777 34.4474C15.7398 34.1886 15.9565 33.986 16.2277 33.8395C16.4989 33.6929 16.7983 33.5838 17.1256 33.5121C17.4561 33.4373 17.7881 33.378 18.1217 33.3344C18.5582 33.2783 18.9121 33.2362 19.1833 33.2081C19.4577 33.1769 19.6572 33.1255 19.7819 33.0538C19.9097 32.9821 19.9736 32.8574 19.9736 32.6797V32.6423C19.9736 32.1808 19.8474 31.8223 19.5948 31.5666C19.3454 31.311 18.9666 31.1832 18.4584 31.1832C17.9315 31.1832 17.5184 31.2985 17.2191 31.5292C16.9198 31.7599 16.7094 32.0062 16.5878 32.2681L15.5403 31.894C15.7273 31.4575 15.9767 31.1177 16.2885 30.8745C16.6034 30.6282 16.9463 30.4567 17.3173 30.3601C17.6915 30.2603 18.0594 30.2104 18.421 30.2104C18.6517 30.2104 18.9167 30.2385 19.216 30.2946C19.5185 30.3476 19.81 30.4583 20.0906 30.6266C20.3743 30.795 20.6097 31.0491 20.7967 31.3889C20.9838 31.7288 21.0773 32.1839 21.0773 32.7545V37.4872H19.9736V36.5145H19.9175C19.8427 36.6703 19.718 36.8371 19.5434 37.0148C19.3688 37.1926 19.1365 37.3438 18.8466 37.4685C18.5566 37.5932 18.2028 37.6555 17.785 37.6555ZM17.9534 36.6641C18.3898 36.6641 18.7577 36.5784 19.057 36.4069C19.3595 36.2354 19.587 36.0141 19.7398 35.7428C19.8957 35.4716 19.9736 35.1863 19.9736 34.887V33.8769C19.9269 33.933 19.824 33.9844 19.665 34.0312C19.5091 34.0748 19.3283 34.1138 19.1225 34.1481C18.9199 34.1793 18.7219 34.2073 18.5286 34.2323C18.3384 34.2541 18.1841 34.2728 18.0656 34.2884C17.7788 34.3258 17.5106 34.3866 17.2612 34.4708C17.0149 34.5519 16.8154 34.675 16.6626 34.8402C16.513 35.0024 16.4382 35.2237 16.4382 35.5043C16.4382 35.8878 16.58 36.1777 16.8637 36.3742C17.1506 36.5675 17.5138 36.6641 17.9534 36.6641ZM23.0917 37.4872V30.304H24.158V31.3889H24.2328C24.3638 31.0335 24.6007 30.7451 24.9437 30.5238C25.2866 30.3024 25.6732 30.1917 26.1035 30.1917C26.1845 30.1917 26.2858 30.1933 26.4074 30.1964C26.529 30.1995 26.621 30.2042 26.6834 30.2104V31.3328C26.6459 31.3235 26.5602 31.3094 26.4261 31.2907C26.2952 31.2689 26.1565 31.258 26.0099 31.258C25.6607 31.258 25.349 31.3313 25.0746 31.4778C24.8034 31.6212 24.5883 31.8207 24.4292 32.0764C24.2734 32.3289 24.1954 32.6173 24.1954 32.9416V37.4872H23.0917ZM30.7847 37.6368C30.0926 37.6368 29.4955 37.4841 28.9936 37.1785C28.4947 36.8699 28.1097 36.4396 27.8385 35.8878C27.5703 35.3328 27.4363 34.6875 27.4363 33.9517C27.4363 33.2159 27.5703 32.5674 27.8385 32.0062C28.1097 31.4419 28.487 31.0023 28.9702 30.6874C29.4566 30.3694 30.024 30.2104 30.6725 30.2104C31.0466 30.2104 31.416 30.2728 31.7808 30.3975C32.1456 30.5222 32.4776 30.7249 32.7769 31.0055C33.0762 31.2829 33.3147 31.6508 33.4924 32.1091C33.6702 32.5674 33.759 33.1317 33.759 33.802V34.2697H28.2219V33.3157H32.6366C32.6366 32.9104 32.5556 32.5487 32.3935 32.2307C32.2344 31.9127 32.0069 31.6617 31.7107 31.4778C31.4176 31.2938 31.0715 31.2019 30.6725 31.2019C30.2329 31.2019 29.8525 31.311 29.5314 31.5292C29.2134 31.7444 28.9686 32.0249 28.7972 32.371C28.6257 32.7171 28.54 33.0881 28.54 33.484V34.1201C28.54 34.6625 28.6335 35.1224 28.8205 35.4996C29.0107 35.8738 29.2742 36.159 29.6109 36.3555C29.9476 36.5488 30.3389 36.6454 30.7847 36.6454C31.0747 36.6454 31.3365 36.6049 31.5704 36.5238C31.8073 36.4396 32.0115 36.3149 32.183 36.1497C32.3545 35.9813 32.487 35.7724 32.5805 35.523L33.6468 35.8223C33.5345 36.184 33.3459 36.502 33.0809 36.7763C32.8159 37.0476 32.4885 37.2596 32.0988 37.4124C31.7091 37.562 31.2711 37.6368 30.7847 37.6368Z" fill="black"/>
</svg>
