<svg width="31" height="41" viewBox="0 0 31 41" fill="none" xmlns="http://www.w3.org/2000/svg">
<path d="M7.43109 2.74359V17.3761C7.43109 17.8612 7.6238 18.3264 7.96681 18.6694C8.30983 19.0124 8.77505 19.2051 9.26015 19.2051H23.8926" stroke="black" stroke-width="1.64615" stroke-miterlimit="5.759" stroke-linecap="round" stroke-linejoin="round"/>
<path d="M11.0898 12.8035L14.748 9.14534L18.4061 12.8035L23.8933 7.31628" stroke="black" stroke-width="1.64615" stroke-miterlimit="5.759" stroke-linecap="round" stroke-linejoin="round"/>
<path d="M21.149 7.31628H23.8926V10.0599" stroke="black" stroke-width="1.64615" stroke-linecap="round" stroke-linejoin="round"/>
<path d="M1.0561 36.0696H2.1814C2.22427 36.5197 2.43218 36.8926 2.80513 37.1884C3.18238 37.4799 3.69466 37.6257 4.34197 37.6257C4.95499 37.6257 5.44155 37.4864 5.80165 37.2077C6.16603 36.9291 6.34822 36.5518 6.34822 36.076C6.34822 35.7159 6.23248 35.4265 6.00099 35.2079C5.7695 34.9893 5.40726 34.8157 4.91427 34.6871L3.371 34.2819C3.09235 34.2091 2.83729 34.1148 2.6058 33.999C2.37431 33.879 2.15782 33.7289 1.95634 33.5489C1.75914 33.3688 1.60267 33.1459 1.48693 32.8801C1.37547 32.6101 1.31974 32.31 1.31974 31.9799C1.31974 31.5812 1.40333 31.219 1.57052 30.8932C1.74199 30.5674 1.9692 30.3016 2.25213 30.0958C2.53506 29.8901 2.85658 29.7314 3.21667 29.62C3.58106 29.5085 3.96259 29.4528 4.36126 29.4528C4.66563 29.4528 4.95928 29.485 5.24221 29.5493C5.52943 29.6093 5.80165 29.7079 6.05886 29.845C6.32036 29.9779 6.54756 30.1408 6.74047 30.3338C6.93338 30.5224 7.08771 30.756 7.20345 31.0347C7.32348 31.3133 7.38779 31.6177 7.39636 31.9478H6.28392C6.24534 31.5062 6.05672 31.1461 5.71806 30.8675C5.38368 30.5845 4.92284 30.4431 4.33554 30.4431C3.77825 30.4431 3.32599 30.5717 2.97875 30.8289C2.63152 31.0861 2.4579 31.444 2.4579 31.9027C2.4579 32.5629 2.86944 32.9959 3.69251 33.2017L5.21006 33.6068C5.56587 33.7011 5.87453 33.8104 6.13602 33.9347C6.40181 34.059 6.63973 34.2155 6.84979 34.4041C7.06413 34.5885 7.22489 34.8135 7.33206 35.0793C7.43923 35.3451 7.49281 35.6495 7.49281 35.9924C7.49281 36.4125 7.40708 36.7919 7.2356 37.1306C7.06842 37.4692 6.83693 37.7457 6.54113 37.9601C6.24534 38.1744 5.8981 38.3373 5.49943 38.4488C5.10503 38.5645 4.67849 38.6224 4.2198 38.6224C3.66679 38.6224 3.17809 38.5452 2.75369 38.3909C2.33358 38.2323 2.00564 38.0244 1.76986 37.7672C1.53408 37.51 1.35832 37.2399 1.24257 36.9569C1.12683 36.6697 1.06467 36.3739 1.0561 36.0696ZM9.68554 31.6777V29.9929H10.7851V31.6777H12.1226V32.6036H10.7851V36.5583C10.7851 36.9569 10.8623 37.227 11.0166 37.3685C11.1752 37.5057 11.4646 37.5743 11.8847 37.5743C12.0133 37.5743 12.1076 37.57 12.1676 37.5614V38.4488C12.0176 38.4788 11.8311 38.4938 11.6082 38.4938C11.2095 38.4938 10.8837 38.4573 10.6308 38.3845C10.3779 38.3073 10.1807 38.183 10.0392 38.0115C9.90203 37.84 9.80772 37.6428 9.75628 37.4199C9.70483 37.1927 9.67911 36.9012 9.67911 36.5454V32.6036H8.77244V31.6777H9.68554ZM17.4726 37.5935C17.0782 38.228 16.4266 38.5452 15.5178 38.5452C14.8619 38.5452 14.3304 38.3587 13.9231 37.9858C13.5159 37.6085 13.3122 37.1113 13.3122 36.494C13.3122 35.8938 13.5159 35.4223 13.9231 35.0793C14.3346 34.7364 14.9219 34.5627 15.685 34.5584H17.4662V33.8704C17.4662 33.4289 17.3419 33.0902 17.0932 32.8544C16.8489 32.6144 16.4974 32.4943 16.0387 32.4943C15.6143 32.4943 15.2778 32.5951 15.0291 32.7966C14.7848 32.998 14.6454 33.2702 14.6111 33.6132H13.5694C13.608 32.9959 13.8374 32.5008 14.2575 32.1278C14.6819 31.7548 15.2885 31.5684 16.0772 31.5684C16.8189 31.5684 17.419 31.7634 17.8777 32.1535C18.3364 32.5393 18.5658 33.0795 18.5658 33.774V38.4359H17.5048V37.5935H17.4726ZM15.8136 37.6257C16.2894 37.6257 16.6838 37.4928 16.9968 37.227C17.3097 36.9569 17.4662 36.6119 17.4662 36.1917V35.4072H15.7686C15.3228 35.4072 14.9905 35.5016 14.7719 35.6902C14.5533 35.8788 14.444 36.1339 14.444 36.4554C14.444 36.8326 14.5768 37.122 14.8426 37.3235C15.1084 37.525 15.4321 37.6257 15.8136 37.6257ZM20.9 31.6777V29.9929H21.9995V31.6777H23.337V32.6036H21.9995V36.5583C21.9995 36.9569 22.0767 37.227 22.231 37.3685C22.3896 37.5057 22.679 37.5743 23.0991 37.5743C23.2277 37.5743 23.322 37.57 23.3821 37.5614V38.4488C23.232 38.4788 23.0455 38.4938 22.8226 38.4938C22.4239 38.4938 22.0981 38.4573 21.8452 38.3845C21.5923 38.3073 21.3951 38.183 21.2536 38.0115C21.1165 37.84 21.0221 37.6428 20.9707 37.4199C20.9193 37.1927 20.8935 36.9012 20.8935 36.5454V32.6036H19.9869V31.6777H20.9ZM24.636 33.6132C24.636 33.2702 24.7046 32.9659 24.8417 32.7001C24.9789 32.43 25.1654 32.2157 25.4012 32.0571C25.6369 31.8942 25.9006 31.772 26.1921 31.6905C26.4879 31.6091 26.803 31.5684 27.1373 31.5684C27.9004 31.5684 28.492 31.7591 28.9121 32.1407C29.3322 32.5222 29.5423 33.0066 29.5423 33.5939H28.5134C28.5049 33.4524 28.4748 33.3217 28.4234 33.2017C28.372 33.0773 28.2948 32.9595 28.1919 32.848C28.089 32.7322 27.9433 32.6422 27.7547 32.5779C27.5703 32.5093 27.3517 32.475 27.0988 32.475C26.6829 32.475 26.3486 32.5651 26.0956 32.7451C25.8427 32.9209 25.7163 33.1717 25.7163 33.4975C25.7163 33.6046 25.7355 33.7032 25.7741 33.7932C25.8127 33.879 25.8577 33.954 25.9092 34.0183C25.9606 34.0783 26.0356 34.1362 26.1342 34.1919C26.2328 34.2434 26.3186 34.2862 26.3914 34.3205C26.4686 34.3505 26.5758 34.3848 26.7129 34.4234C26.8544 34.4577 26.9637 34.4834 27.0409 34.5006C27.1181 34.5134 27.2317 34.5327 27.3817 34.5584C27.6689 34.6099 27.9133 34.6635 28.1147 34.7192C28.3205 34.7706 28.5306 34.8457 28.7449 34.9443C28.9593 35.0386 29.1329 35.15 29.2658 35.2786C29.3987 35.403 29.5058 35.5637 29.5873 35.7609C29.673 35.9581 29.7159 36.1853 29.7159 36.4425C29.7159 37.1027 29.4715 37.6193 28.9828 37.9922C28.4984 38.3609 27.8511 38.5452 27.0409 38.5452C26.2864 38.5452 25.6777 38.3738 25.2147 38.0308C24.7517 37.6879 24.5202 37.2163 24.5202 36.6161H25.6005C25.6519 36.9334 25.8084 37.1842 26.0699 37.3685C26.3314 37.5485 26.6829 37.6386 27.1245 37.6386C27.6175 37.6386 27.9904 37.5378 28.2434 37.3363C28.5006 37.1349 28.6292 36.8819 28.6292 36.5776C28.6292 36.4532 28.612 36.3439 28.5777 36.2496C28.5434 36.151 28.4813 36.0653 28.3913 35.9924C28.3055 35.9195 28.2219 35.8595 28.1405 35.8124C28.0633 35.7652 27.9433 35.7202 27.7804 35.6773C27.6218 35.6302 27.491 35.5959 27.3881 35.5744C27.2895 35.553 27.1373 35.5208 26.9316 35.478C26.6529 35.4223 26.4107 35.3644 26.205 35.3044C25.9992 35.2443 25.7913 35.165 25.5812 35.0664C25.3754 34.9636 25.2061 34.85 25.0732 34.7256C24.9446 34.597 24.8396 34.4384 24.7581 34.2498C24.6767 34.0612 24.636 33.849 24.636 33.6132Z" fill="#050623"/>
</svg>
