<svg xmlns="http://www.w3.org/2000/svg" version="1.1" xmlns:xlink="http://www.w3.org/1999/xlink" xmlns:svgjs="http://svgjs.dev/svgjs" width="1000" height="1125" viewBox="0 0 1000 1125"><g transform="matrix(1,0,0,1,1.7053025658242404e-13,0)"><svg viewBox="0 0 320 360" data-background-color="#051726" preserveAspectRatio="xMidYMid meet" height="1125" width="1000" xmlns="http://www.w3.org/2000/svg" xmlns:xlink="http://www.w3.org/1999/xlink"><g id="tight-bounds" transform="matrix(1,0,0,1,0,0)"><svg viewBox="0 0 320 360" height="360" width="320"><g><svg></svg></g><g><svg viewBox="0 0 320 360" height="360" width="320"><g><path xmlns="http://www.w3.org/2000/svg" d="M20.961 227.22l3.726 4.658-1.863-6.056c-0.466-2.795-3.726 0.466-1.863 1.398M25.153 224.425c1.397 2.329 2.795 4.658 2.795 6.987 0 3.261 2.795 4.658 5.123 5.589-3.261-3.726-5.124-13.974-7.918-12.576M204.017 26.929c7.918 0 15.371-0.932 23.756 0.931 20.495 5.124 37.729 15.371 49.374 29.811l32.606 52.169c1.397 13.042 4.192 27.482 3.726 43.319 3.261 0 2.795-4.658 6.521-5.59-3.726 9.316-5.59 20.961-6.521 34.469-2.329-7.453 0-18.632 0.466-24.687-3.261 5.124-5.124 1.397-5.124-0.932 0.466-3.726-1.397-3.261-2.795-4.658-5.124-4.658-8.384-9.782-12.11-17.7 2.329-6.055 2.795-14.905-4.658-19.563-2.329-1.397-5.124-3.726-6.521-7.453-1.863-5.124-5.124-11.179-4.193-19.097 0.466-2.329-6.987 5.124-11.179 1.863-18.166-12.576-36.332-27.016-58.224-39.127-11.645 0-20.029-4.192-24.221-9.316-3.726-4.658-0.932-10.713 4.658-11.179 3.261 0 6.987-0.932 9.782 0.932 0.466-1.863 2.329-4.192 4.657-4.192M157.904 16.215l0.932 0.466c4.658 0.932 6.987 7.453 12.11 5.124 0 3.261 0.466 6.521-0.466 8.85-1.397 3.726-5.59 3.726-8.85 3.726-31.208-1.863-49.374 11.179-68.471 22.358-5.124 3.261-10.713 5.59-14.906 9.782-20.029 18.632-41.921 35.866-47.045 70.335l-4.192 38.195c-0.466 4.192-5.124 8.384-4.192 13.508l3.26 22.824c-3.261-3.261-5.124 0.932-4.192 2.795 0.466 1.397 2.329 6.055 5.124 1.863 3.726 6.987 7.453 20.495 12.576 26.55 15.837 18.632 36.332 35.4 53.101 52.169 4.192-0.932 7.453-0.932 8.384-3.727 1.397 2.795-1.397 5.59-3.726 6.056 7.453 4.658 15.837 8.85 27.016 9.781 14.44 0.932 27.948 3.261 40.524 6.522 6.521-1.863 13.042-2.795 20.029-3.261 2.329 0 3.726-3.726 6.521-4.658l0.466-4.658c2.795 4.192 2.329-1.397 0.466-4.192 3.261 2.795 4.192 5.124 5.589 6.987 0-1.397 3.726-6.521 3.727-0.466l0.931-6.055c1.397-0.932 1.863 5.124 3.261 0.931 1.397-4.192 4.192-0.932 6.987-2.329-0.932 1.863-0.466 5.59 2.794 3.261l3.727-3.261c2.329 5.59 6.055 3.261 7.918 2.329 20.495-13.042 40.99-28.413 60.553-43.784l-0.466 6.055 2.329-7.453c2.329 2.329 4.192 0.466 5.124-0.931 2.795-4.658 6.521-9.316 12.577-13.508-7.453 20.029-16.303 35.866-27.482 48.908l-4.658 5.59c0 3.261-0.932 7.453-4.658 7.918-1.863 0.466-5.59-0.932-8.384 1.863-1.397 1.863 3.261 5.59-0.466 2.795-3.261-2.329-6.521 0-10.248 0.932-2.795 0.932 1.863 3.726 2.795 5.589 0.932 1.863 1.863 3.726 1.398 6.056l-5.124-5.59c-6.055 3.261-9.782 9.316-14.906 13.974-2.329 1.863-1.397 5.124-1.397 7.918-3.261 0-6.987-0.932-8.85 0.932-1.397 1.863-0.932 4.658-0.932 7.453-4.658-0.466-5.124-7.453-9.315-6.056-4.192 0.932-8.85 1.397-12.577 3.727 2.795 5.59-4.658 2.329-3.726 3.26-6.987-4.192-13.042-7.453-20.495-4.658-15.837-5.124-35.4-2.795-49.84-0.931 0-2.329 0.466-4.658-0.466-5.124-0.932 2.329-3.726 1.397-3.26 1.397-8.85-6.055-17.7-9.782-27.016-14.905-8.384 0.932-16.303-3.261-18.632-5.59-6.521-6.055-13.974-2.795-20.029-4.192-13.042-3.261-17.7-16.769-19.098-26.084-0.932-4.658-4.658-6.521-6.055-6.056-6.055-19.563-15.371-37.263-22.824-55.429-1.863-4.658-1.397-9.316-1.397-14.44 2.329 0.932 4.658 0.466 4.192-2.794-2.329-15.371-7.918-27.016-13.974-38.195 3.261-15.837 3.726-34.469 11.179-48.443 6.521-12.576 18.632-19.098 27.016-29.811 2.795-3.726 2.795-8.85 5.59-12.11 9.316-9.316 18.632-19.098 28.879-27.482 4.658-3.726 10.247 0 17.234-1.397 2.329-8.384 11.645-15.837 20.495-13.508 3.726 0.932 11.179-8.85 13.508-9.782 3.726-1.397 1.863 3.726 1.863 6.987 8.85-6.987 20.961-10.713 32.14-14.906" fill="#000000" fill-rule="nonzero" stroke="none" stroke-width="1" stroke-linecap="butt" stroke-linejoin="miter" stroke-miterlimit="10" stroke-dasharray="" stroke-dashoffset="0" font-family="none" font-weight="none" font-size="none" text-anchor="none" style="mix-blend-mode: normal" data-fill-palette-color="tertiary"></path></g><g transform="matrix(1,0,0,1,64,172.61802575107296)"><svg viewBox="0 0 192 14.763948497854077" height="14.763948497854077" width="192"><g><svg viewBox="0 0 192 14.763948497854077" height="14.763948497854077" width="192"><g><svg viewBox="0 0 192 14.763948497854077" height="14.763948497854077" width="192"><g><svg viewBox="0 0 192 14.763948497854077" height="14.763948497854077" width="192"><g id="textblocktransform"><svg viewBox="0 0 192 14.763948497854077" height="14.763948497854077" width="192" id="textblock"><g><svg viewBox="0 0 192 14.763948497854077" height="14.763948497854077" width="192"><g transform="matrix(1,0,0,1,0,0)"><svg width="192" viewBox="1.2899999618530273 -36.25 477.79998779296875 36.7400016784668" height="14.763948497854077" data-palette-color="#ffffff"><path d="M17.94-31.98L17.94 0 13.16 0 13.16-31.98 1.29-31.98 2.03-35.77 30.3-35.77 29.57-31.98 17.94-31.98ZM41.7 0L36.91 0 36.91-35.77 41.7-35.77 41.7-20.56 60.94-20.56 60.94-35.77 65.72-35.77 65.72 0 60.94 0 60.94-16.77 41.7-16.77 41.7 0ZM96.99 0L76.36 0 76.36-35.77 97.33-35.77 96.6-31.98 81.15-31.98 81.15-20.56 94.92-20.56 94.18-16.77 81.15-16.77 81.15-3.78 97.72-3.78 96.99 0ZM136.12 0L117.28 0 117.28-35.77 122.06-35.77 122.06-3.78 136.86-3.78 136.12 0ZM148.91-35.77L148.91 0 144.13 0 144.13-35.77 148.91-35.77ZM172.18-31.98L172.18 0 167.39 0 167.39-31.98 155.53-31.98 156.26-35.77 184.53-35.77 183.8-31.98 172.18-31.98ZM204.77-31.98L204.77 0 199.98 0 199.98-31.98 188.12-31.98 188.85-35.77 217.12-35.77 216.39-31.98 204.77-31.98ZM242.58 0L223.73 0 223.73-35.77 228.52-35.77 228.52-3.78 243.31-3.78 242.58 0ZM271.22 0L250.59 0 250.59-35.77 271.56-35.77 270.83-31.98 255.37-31.98 255.37-20.56 269.14-20.56 268.41-16.77 255.37-16.77 255.37-3.78 271.95-3.78 271.22 0ZM304.12-31.98L304.12 0 299.34 0 299.34-31.98 287.47-31.98 288.2-35.77 316.48-35.77 315.74-31.98 304.12-31.98ZM327.88 0L323.09 0 323.09-35.77 327.88-35.77 327.88-20.56 347.11-20.56 347.11-35.77 351.9-35.77 351.9 0 347.11 0 347.11-16.77 327.88-16.77 327.88 0ZM367.33-35.77L367.33 0 362.54 0 362.54-35.77 367.33-35.77ZM382.09 0L377.72 0 377.72-35.77 384.68-35.77 401.55-11.35 403.99-6.96 404.48-6.96 404.14-11.94 404.14-35.77 408.51-35.77 408.51 0 404.46 0 384.44-28.81 382.24-33.06 381.75-33.06 382.09-28.08 382.09 0ZM447.13-16.75L447.13-1.83Q443.74-0.51 440.73-0.01 437.73 0.49 435.31 0.49L435.31 0.49Q431.24 0.49 427.89-0.74 424.55-1.98 422.17-4.26 419.79-6.54 418.49-9.78 417.2-13.01 417.2-16.99L417.2-16.99Q417.2-20 417.93-22.6 418.66-25.2 419.98-27.33 421.3-29.47 423.14-31.13 424.99-32.79 427.2-33.92 429.41-35.06 431.92-35.66 434.44-36.25 437.12-36.25L437.12-36.25Q438.88-36.25 441.25-35.95 443.61-35.64 446.3-34.84L446.3-34.84 445.49-30.64 445.01-30.4Q442.32-31.62 440.03-32.04 437.73-32.47 436.1-32.47L436.1-32.47Q432.97-32.47 430.41-31.34 427.84-30.2 426.01-28.23 424.18-26.27 423.18-23.62 422.18-20.97 422.18-17.97L422.18-17.97Q422.18-15.11 423.11-12.46 424.03-9.81 425.8-7.78 427.57-5.74 430.16-4.52 432.75-3.3 436.1-3.3L436.1-3.3Q437.56-3.3 439.28-3.56 441-3.83 442.83-4.39L442.83-4.39 442.83-16.75 447.13-16.75ZM467.03-3.3L467.03-3.3Q468.64-3.3 470-3.72 471.37-4.15 472.35-4.94 473.32-5.74 473.87-6.84 474.42-7.93 474.42-9.28L474.42-9.28Q474.42-10.86 473.68-11.96 472.93-13.06 471.73-13.89 470.52-14.72 468.95-15.37 467.39-16.02 465.78-16.69 464.17-17.36 462.61-18.14 461.04-18.92 459.84-20.04 458.63-21.17 457.88-22.69 457.14-24.22 457.14-26.39L457.14-26.39Q457.14-28.69 458.02-30.52 458.9-32.35 460.47-33.63 462.04-34.91 464.21-35.58 466.37-36.25 468.95-36.25L468.95-36.25Q470.54-36.25 472.93-35.95 475.33-35.64 478.01-34.84L478.01-34.84 477.21-30.59 476.72-30.35Q475.38-30.96 474.11-31.37 472.84-31.79 471.71-32.03 470.59-32.28 469.64-32.37 468.69-32.47 467.98-32.47L467.98-32.47Q466.54-32.47 465.38-32.12 464.22-31.76 463.4-31.09 462.58-30.42 462.13-29.46 461.68-28.49 461.68-27.27L461.68-27.27Q461.68-25.63 462.42-24.49 463.17-23.34 464.4-22.46 465.63-21.58 467.2-20.9 468.76-20.21 470.38-19.53 472.01-18.85 473.57-18.07 475.13-17.29 476.36-16.25 477.6-15.21 478.34-13.79 479.09-12.38 479.09-10.4L479.09-10.4Q479.09-8.23 478.15-6.26 477.21-4.3 475.51-2.8 473.81-1.29 471.43-0.4 469.05 0.49 466.17 0.49L466.17 0.49Q464.95 0.49 463.62 0.32 462.29 0.15 460.95-0.16 459.6-0.46 458.3-0.9 456.99-1.34 455.82-1.88L455.82-1.88 456.65-6.15 457.14-6.4Q459.63-4.96 462.18-4.13 464.73-3.3 467.03-3.3Z" opacity="1" transform="matrix(1,0,0,1,0,0)" fill="#000000" class="wordmark-text-0" data-fill-palette-color="primary" id="text-0"></path></svg></g></svg></g></svg></g></svg></g></svg></g></svg></g></svg></g></svg></g><defs></defs></svg><rect width="320" height="360" fill="none" stroke="none" visibility="hidden"></rect></g></svg></g></svg>