<svg width="32" height="41" viewBox="0 0 32 41" fill="none" xmlns="http://www.w3.org/2000/svg">
<path d="M25.5385 2.05335L20.0465 2.05337V0.686058C20.0465 0.307011 19.7396 0 19.3606 0C18.9816 0 18.6747 0.307011 18.6747 0.686058V2.05303H13.1875V0.686058C13.1875 0.307011 12.8806 0 12.5016 0C12.1227 0 11.8157 0.307011 11.8157 0.686058V2.05303H6.33334C5.57577 2.05303 4.96155 2.66739 4.96155 3.42515V20.5766C4.96155 21.3343 5.57577 21.9487 6.33334 21.9487H25.5385C26.296 21.9487 26.9103 21.3343 26.9103 20.5766V3.42515C26.9103 2.66772 26.296 2.05335 25.5385 2.05335ZM25.5385 20.5766H6.33334V3.42515H11.8157V4.11635C11.8157 4.49538 12.1227 4.80241 12.5016 4.80241C12.8806 4.80241 13.1875 4.49538 13.1875 4.11635V3.42549H18.6747V4.11669C18.6747 4.49574 18.9816 4.80275 19.3606 4.80275C19.7396 4.80275 20.0465 4.49574 20.0465 4.11669V3.42549H25.5385V20.5766ZM20.7372 10.9721H22.109C22.4876 10.9721 22.7949 10.6648 22.7949 10.286V8.91393C22.7949 8.53523 22.4876 8.22787 22.109 8.22787H20.7372C20.3586 8.22787 20.0513 8.53523 20.0513 8.91393V10.286C20.0513 10.6648 20.3586 10.9721 20.7372 10.9721ZM20.7372 16.4602H22.109C22.4876 16.4602 22.7949 16.1532 22.7949 15.7742V14.4021C22.7949 14.0234 22.4876 13.716 22.109 13.716H20.7372C20.3586 13.716 20.0513 14.0234 20.0513 14.4021V15.7742C20.0513 16.1536 20.3586 16.4602 20.7372 16.4602ZM16.6218 13.716H15.25C14.8714 13.716 14.5641 14.0234 14.5641 14.4021V15.7742C14.5641 16.1532 14.8714 16.4602 15.25 16.4602H16.6218C17.0004 16.4602 17.3077 16.1532 17.3077 15.7742V14.4021C17.3077 14.0237 17.0004 13.716 16.6218 13.716ZM16.6218 8.22787H15.25C14.8714 8.22787 14.5641 8.53523 14.5641 8.91393V10.286C14.5641 10.6648 14.8714 10.9721 15.25 10.9721H16.6218C17.0004 10.9721 17.3077 10.6648 17.3077 10.286V8.91393C17.3077 8.53489 17.0004 8.22787 16.6218 8.22787ZM11.1346 8.22787H9.76283C9.38421 8.22787 9.07693 8.53523 9.07693 8.91393V10.286C9.07693 10.6648 9.38421 10.9721 9.76283 10.9721H11.1346C11.5132 10.9721 11.8205 10.6648 11.8205 10.286V8.91393C11.8205 8.53489 11.5132 8.22787 11.1346 8.22787ZM11.1346 13.716H9.76283C9.38421 13.716 9.07693 14.0234 9.07693 14.4021V15.7742C9.07693 16.1532 9.38421 16.4602 9.76283 16.4602H11.1346C11.5132 16.4602 11.8205 16.1532 11.8205 15.7742V14.4021C11.8205 14.0237 11.5132 13.716 11.1346 13.716Z" fill="black"/>
<path d="M4.34553 38.4359H3.23309V30.6617H0.564519V29.6586H7.0141V30.6617H4.34553V38.4359ZM7.38062 32.4557C7.89076 31.8642 8.60452 31.5684 9.52191 31.5684C10.4393 31.5684 11.1509 31.8642 11.6568 32.4557C12.1626 33.0473 12.4155 33.8104 12.4155 34.7449V35.3494C12.4155 36.2968 12.1626 37.0663 11.6568 37.6578C11.1552 38.2494 10.4436 38.5452 9.52191 38.5452C8.60024 38.5452 7.88433 38.2494 7.37419 37.6578C6.86834 37.0663 6.61542 36.2968 6.61542 35.3494V34.7449C6.61542 33.8104 6.87049 33.0473 7.38062 32.4557ZM9.52191 32.5136C8.94747 32.5136 8.50378 32.7172 8.19084 33.1245C7.8779 33.5275 7.72143 34.0805 7.72143 34.7835V35.3108C7.72143 36.0096 7.8779 36.5647 8.19084 36.9762C8.50378 37.3835 8.94747 37.5871 9.52191 37.5871C10.0921 37.5871 10.5315 37.3835 10.8401 36.9762C11.1531 36.569 11.3095 36.0138 11.3095 35.3108V34.7835C11.3095 34.0805 11.1531 33.5275 10.8401 33.1245C10.5315 32.7172 10.0921 32.5136 9.52191 32.5136ZM16.8331 29.6586H19.6496C20.9228 29.6586 21.8831 30.0294 22.5304 30.771C23.182 31.5083 23.5078 32.5994 23.5078 34.044C23.5078 35.4844 23.182 36.5776 22.5304 37.3235C21.8788 38.0651 20.9185 38.4359 19.6496 38.4359H16.8331V29.6586ZM17.9584 30.6617V37.4328H19.5853C21.4244 37.4328 22.3439 36.3032 22.3439 34.044C22.3439 31.7891 21.4244 30.6617 19.5853 30.6617H17.9584ZM25.5655 32.4557C26.0756 31.8642 26.7894 31.5684 27.7068 31.5684C28.6242 31.5684 29.3358 31.8642 29.8416 32.4557C30.3475 33.0473 30.6004 33.8104 30.6004 34.7449V35.3494C30.6004 36.2968 30.3475 37.0663 29.8416 37.6578C29.3401 38.2494 28.6284 38.5452 27.7068 38.5452C26.7851 38.5452 26.0692 38.2494 25.559 37.6578C25.0532 37.0663 24.8003 36.2968 24.8003 35.3494V34.7449C24.8003 33.8104 25.0553 33.0473 25.5655 32.4557ZM27.7068 32.5136C27.1323 32.5136 26.6886 32.7172 26.3757 33.1245C26.0628 33.5275 25.9063 34.0805 25.9063 34.7835V35.3108C25.9063 36.0096 26.0628 36.5647 26.3757 36.9762C26.6886 37.3835 27.1323 37.5871 27.7068 37.5871C28.2769 37.5871 28.7163 37.3835 29.025 36.9762C29.3379 36.569 29.4944 36.0138 29.4944 35.3108V34.7835C29.4944 34.0805 29.3379 33.5275 29.025 33.1245C28.7163 32.7172 28.2769 32.5136 27.7068 32.5136Z" fill="#050623"/>
</svg>
