<svg width="40" height="42" viewBox="0 0 40 42" fill="none" xmlns="http://www.w3.org/2000/svg">
<g clip-path="url(#clip0_9_39)" filter="url(#filter0_d_9_39)">
<path d="M34 3.18375L25.993 3.18379V1.06622C25.993 0.479192 25.5455 0.00372314 24.993 0.00372314C24.4405 0.00372314 23.993 0.479192 23.993 1.06622V3.18325H15.993V1.06622C15.993 0.479192 15.5455 0.00372314 14.993 0.00372314C14.4405 0.00372314 13.993 0.479192 13.993 1.06622V3.18325H6C4.8955 3.18325 4 4.13472 4 5.30825V31.8708C4 33.0443 4.8955 33.9958 6 33.9958H34C35.1045 33.9958 36 33.0443 36 31.8708V5.30825C36 4.13522 35.1045 3.18375 34 3.18375ZM34 31.8708H6V5.30825H13.993V6.37872C13.993 6.96572 14.4405 7.44122 14.993 7.44122C15.5455 7.44122 15.993 6.96572 15.993 6.37872V5.30879H23.993V6.37925C23.993 6.96629 24.4405 7.44175 24.993 7.44175C25.5455 7.44175 25.993 6.96629 25.993 6.37925V5.30879H34V31.8708ZM27 16.9963H29C29.552 16.9963 30 16.5203 30 15.9338V13.8088C30 13.2223 29.552 12.7463 29 12.7463H27C26.448 12.7463 26 13.2223 26 13.8088V15.9338C26 16.5203 26.448 16.9963 27 16.9963ZM27 25.4957H29C29.552 25.4957 30 25.0203 30 24.4332V22.3082C30 21.7217 29.552 21.2457 29 21.2457H27C26.448 21.2457 26 21.7217 26 22.3082V24.4332C26 25.0208 26.448 25.4957 27 25.4957ZM21 21.2457H19C18.448 21.2457 18 21.7217 18 22.3082V24.4332C18 25.0203 18.448 25.4957 19 25.4957H21C21.552 25.4957 22 25.0203 22 24.4332V22.3082C22 21.7223 21.552 21.2457 21 21.2457ZM21 12.7463H19C18.448 12.7463 18 13.2223 18 13.8088V15.9338C18 16.5203 18.448 16.9963 19 16.9963H21C21.552 16.9963 22 16.5203 22 15.9338V13.8088C22 13.2217 21.552 12.7463 21 12.7463ZM13 12.7463H11C10.448 12.7463 10 13.2223 10 13.8088V15.9338C10 16.5203 10.448 16.9963 11 16.9963H13C13.552 16.9963 14 16.5203 14 15.9338V13.8088C14 13.2217 13.552 12.7463 13 12.7463ZM13 21.2457H11C10.448 21.2457 10 21.7217 10 22.3082V24.4332C10 25.0203 10.448 25.4957 11 25.4957H13C13.552 25.4957 14 25.0203 14 24.4332V22.3082C14 21.7223 13.552 21.2457 13 21.2457Z" fill="black"/>
</g>
<defs>
<filter id="filter0_d_9_39" x="0" y="0" width="40" height="42" filterUnits="userSpaceOnUse" color-interpolation-filters="sRGB">
<feFlood flood-opacity="0" result="BackgroundImageFix"/>
<feColorMatrix in="SourceAlpha" type="matrix" values="0 0 0 0 0 0 0 0 0 0 0 0 0 0 0 0 0 0 127 0" result="hardAlpha"/>
<feOffset dy="4"/>
<feGaussianBlur stdDeviation="2"/>
<feComposite in2="hardAlpha" operator="out"/>
<feColorMatrix type="matrix" values="0 0 0 0 0 0 0 0 0 0 0 0 0 0 0 0 0 0 0.5 0"/>
<feBlend mode="normal" in2="BackgroundImageFix" result="effect1_dropShadow_9_39"/>
<feBlend mode="normal" in="SourceGraphic" in2="effect1_dropShadow_9_39" result="shape"/>
</filter>
<clipPath id="clip0_9_39">
<rect width="32" height="34" fill="white" transform="translate(4)"/>
</clipPath>
</defs>
</svg>
