<svg width="62" height="62" viewBox="0 0 62 62" fill="none" xmlns="http://www.w3.org/2000/svg">
<rect opacity="0.5" y="31.0315" width="43.563" height="44.1165" rx="8" transform="rotate(-45.4252 0 31.0315)" fill="#AFE69C"/>
<path fill-rule="evenodd" clip-rule="evenodd" d="M20.33 17.763C18.5 19.7787 18.5 23.0182 18.5 29.5C18.5 35.9818 18.5 39.2226 20.33 41.2356C22.1625 43.25 25.1075 43.25 31 43.25C36.8925 43.25 39.8387 43.25 41.6688 41.2356C43.5 39.224 43.5 35.9818 43.5 29.5C43.5 23.0182 43.5 19.7774 41.6688 17.763C39.84 15.75 36.8925 15.75 31 15.75C25.1075 15.75 22.1613 15.75 20.33 17.763ZM29.18 23.3359C29.2649 23.2377 29.3313 23.1222 29.3756 22.9958C29.4199 22.8694 29.4411 22.7346 29.438 22.5992C29.4349 22.4638 29.4076 22.3304 29.3577 22.2066C29.3077 22.0828 29.2361 21.971 29.1469 21.8777C29.0577 21.7843 28.9526 21.7112 28.8377 21.6625C28.7228 21.6138 28.6003 21.5905 28.4772 21.5939C28.3541 21.5973 28.2328 21.6273 28.1203 21.6823C28.0077 21.7372 27.9061 21.816 27.8212 21.9141L24.9288 25.2554L24.1788 24.3891C24.0948 24.2871 23.9931 24.2045 23.8797 24.1464C23.7663 24.0882 23.6435 24.0556 23.5185 24.0505C23.3934 24.0454 23.2688 24.0679 23.1517 24.1166C23.0347 24.1653 22.9278 24.2393 22.8371 24.3342C22.7465 24.4291 22.6741 24.543 22.6241 24.6692C22.5742 24.7953 22.5476 24.9312 22.5462 25.0688C22.5447 25.2065 22.5683 25.343 22.6155 25.4705C22.6627 25.5979 22.7327 25.7136 22.8212 25.8109L24.25 27.4609C24.3376 27.562 24.4429 27.6424 24.5595 27.6974C24.6762 27.7524 24.8018 27.7808 24.9288 27.7808C25.0557 27.7808 25.1813 27.7524 25.298 27.6974C25.4146 27.6424 25.5199 27.562 25.6075 27.4609L29.18 23.3359ZM32.25 24.3438C32.0014 24.3438 31.7629 24.4524 31.5871 24.6458C31.4113 24.8392 31.3125 25.1015 31.3125 25.375C31.3125 25.6485 31.4113 25.9108 31.5871 26.1042C31.7629 26.2976 32.0014 26.4062 32.25 26.4062H38.5C38.7486 26.4062 38.9871 26.2976 39.1629 26.1042C39.3387 25.9108 39.4375 25.6485 39.4375 25.375C39.4375 25.1015 39.3387 24.8392 39.1629 24.6458C38.9871 24.4524 38.7486 24.3438 38.5 24.3438H32.25ZM29.1788 32.9609C29.2673 32.8636 29.3373 32.7479 29.3845 32.6205C29.4317 32.493 29.4553 32.3565 29.4538 32.2188C29.4524 32.0812 29.4258 31.9453 29.3759 31.8192C29.3259 31.693 29.2535 31.5791 29.1629 31.4842C29.0722 31.3893 28.9653 31.3153 28.8483 31.2666C28.7312 31.2179 28.6066 31.1954 28.4815 31.2005C28.3565 31.2056 28.2337 31.2382 28.1203 31.2964C28.0069 31.3545 27.9052 31.4371 27.8212 31.5391L24.9288 34.8804L24.1788 34.0141C24.0948 33.9121 23.9931 33.8295 23.8797 33.7714C23.7663 33.7132 23.6435 33.6806 23.5185 33.6755C23.3934 33.6704 23.2688 33.6929 23.1517 33.7416C23.0347 33.7903 22.9278 33.8643 22.8371 33.9592C22.7465 34.0541 22.6741 34.168 22.6241 34.2942C22.5742 34.4203 22.5476 34.5562 22.5462 34.6938C22.5447 34.8315 22.5683 34.968 22.6155 35.0955C22.6627 35.2229 22.7327 35.3386 22.8212 35.4359L24.25 37.0859C24.3376 37.187 24.4429 37.2674 24.5595 37.3224C24.6762 37.3774 24.8018 37.4058 24.9288 37.4058C25.0557 37.4058 25.1813 37.3774 25.298 37.3224C25.4146 37.2674 25.5199 37.187 25.6075 37.0859L29.1788 32.9609ZM32.25 33.9688C32.0014 33.9688 31.7629 34.0774 31.5871 34.2708C31.4113 34.4642 31.3125 34.7265 31.3125 35C31.3125 35.2735 31.4113 35.5358 31.5871 35.7292C31.7629 35.9226 32.0014 36.0312 32.25 36.0312H38.5C38.7486 36.0312 38.9871 35.9226 39.1629 35.7292C39.3387 35.5358 39.4375 35.2735 39.4375 35C39.4375 34.7265 39.3387 34.4642 39.1629 34.2708C38.9871 34.0774 38.7486 33.9688 38.5 33.9688H32.25Z" fill="#0FA958"/>
</svg>
