<svg width="62" height="62" viewBox="0 0 62 62" fill="none" xmlns="http://www.w3.org/2000/svg">
<rect opacity="0.5" y="31.0315" width="43.563" height="44.1165" rx="8" transform="rotate(-45.4252 0 31.0315)" fill="#CE5858"/>
<path fill-rule="evenodd" clip-rule="evenodd" d="M20.33 18.763C18.5 20.7787 18.5 24.0182 18.5 30.5C18.5 36.9817 18.5 40.2226 20.33 42.2356C22.1625 44.25 25.1075 44.25 31 44.25C36.8925 44.25 39.8387 44.25 41.6688 42.2356C43.5 40.224 43.5 36.9817 43.5 30.5C43.5 24.0182 43.5 20.7774 41.6688 18.763C39.84 16.75 36.8925 16.75 31 16.75C25.1075 16.75 22.1613 16.75 20.33 18.763ZM29.18 24.3359C29.2649 24.2377 29.3313 24.1222 29.3756 23.9958C29.4199 23.8694 29.4411 23.7346 29.438 23.5992C29.4349 23.4638 29.4076 23.3304 29.3577 23.2066C29.3077 23.0828 29.2361 22.971 29.1469 22.8777C29.0577 22.7843 28.9526 22.7112 28.8377 22.6625C28.7228 22.6138 28.6003 22.5905 28.4772 22.5939C28.3541 22.5973 28.2328 22.6273 28.1203 22.6822C28.0077 22.7372 27.9061 22.816 27.8212 22.9141L24.9288 26.2554L24.1788 25.3891C24.0948 25.2871 23.9931 25.2045 23.8797 25.1464C23.7663 25.0882 23.6435 25.0556 23.5185 25.0505C23.3934 25.0454 23.2688 25.0679 23.1517 25.1166C23.0347 25.1653 22.9278 25.2393 22.8371 25.3342C22.7465 25.4291 22.6741 25.543 22.6241 25.6691C22.5742 25.7953 22.5476 25.9312 22.5462 26.0688C22.5447 26.2065 22.5683 26.343 22.6155 26.4704C22.6627 26.5979 22.7327 26.7136 22.8212 26.8109L24.25 28.4609C24.3376 28.562 24.4429 28.6424 24.5595 28.6974C24.6762 28.7524 24.8018 28.7808 24.9288 28.7808C25.0557 28.7808 25.1813 28.7524 25.298 28.6974C25.4146 28.6424 25.5199 28.562 25.6075 28.4609L29.18 24.3359ZM32.25 25.3437C32.0014 25.3437 31.7629 25.4524 31.5871 25.6458C31.4113 25.8392 31.3125 26.1015 31.3125 26.375C31.3125 26.6485 31.4113 26.9108 31.5871 27.1042C31.7629 27.2976 32.0014 27.4062 32.25 27.4062H38.5C38.7486 27.4062 38.9871 27.2976 39.1629 27.1042C39.3387 26.9108 39.4375 26.6485 39.4375 26.375C39.4375 26.1015 39.3387 25.8392 39.1629 25.6458C38.9871 25.4524 38.7486 25.3437 38.5 25.3437H32.25ZM29.1788 33.9609C29.2673 33.8636 29.3373 33.7479 29.3845 33.6204C29.4317 33.493 29.4553 33.3565 29.4538 33.2188C29.4524 33.0812 29.4258 32.9453 29.3759 32.8192C29.3259 32.693 29.2535 32.5791 29.1629 32.4842C29.0722 32.3893 28.9653 32.3153 28.8483 32.2666C28.7312 32.2179 28.6066 32.1954 28.4815 32.2005C28.3565 32.2056 28.2337 32.2382 28.1203 32.2964C28.0069 32.3545 27.9052 32.4371 27.8212 32.5391L24.9288 35.8804L24.1788 35.0141C24.0948 34.9121 23.9931 34.8295 23.8797 34.7714C23.7663 34.7132 23.6435 34.6806 23.5185 34.6755C23.3934 34.6704 23.2688 34.6929 23.1517 34.7416C23.0347 34.7903 22.9278 34.8643 22.8371 34.9592C22.7465 35.0541 22.6741 35.168 22.6241 35.2941C22.5742 35.4203 22.5476 35.5562 22.5462 35.6938C22.5447 35.8315 22.5683 35.968 22.6155 36.0954C22.6627 36.2229 22.7327 36.3386 22.8212 36.4359L24.25 38.0859C24.3376 38.187 24.4429 38.2674 24.5595 38.3224C24.6762 38.3774 24.8018 38.4058 24.9288 38.4058C25.0557 38.4058 25.1813 38.3774 25.298 38.3224C25.4146 38.2674 25.5199 38.187 25.6075 38.0859L29.1788 33.9609ZM32.25 34.9687C32.0014 34.9687 31.7629 35.0774 31.5871 35.2708C31.4113 35.4642 31.3125 35.7265 31.3125 36C31.3125 36.2735 31.4113 36.5358 31.5871 36.7292C31.7629 36.9226 32.0014 37.0312 32.25 37.0312H38.5C38.7486 37.0312 38.9871 36.9226 39.1629 36.7292C39.3387 36.5358 39.4375 36.2735 39.4375 36C39.4375 35.7265 39.3387 35.4642 39.1629 35.2708C38.9871 35.0774 38.7486 34.9687 38.5 34.9687H32.25Z" fill="#AD6969"/>
</svg>
