<svg width="7" height="32" viewBox="0 0 7 32" fill="none" xmlns="http://www.w3.org/2000/svg">
<path d="M3.5 7.92308C4.88071 7.92308 6 6.37329 6 4.46154C6 2.54978 4.88071 1 3.5 1C2.11929 1 1 2.54978 1 4.46154C1 6.37329 2.11929 7.92308 3.5 7.92308Z" stroke="white" stroke-linecap="round" stroke-linejoin="round"/>
<path d="M3.5 19.4615C4.88071 19.4615 6 17.9117 6 16C6 14.0882 4.88071 12.5385 3.5 12.5385C2.11929 12.5385 1 14.0882 1 16C1 17.9117 2.11929 19.4615 3.5 19.4615Z" stroke="white" stroke-linecap="round" stroke-linejoin="round"/>
<path d="M3.5 31C4.88071 31 6 29.4502 6 27.5385C6 25.6267 4.88071 24.0769 3.5 24.0769C2.11929 24.0769 1 25.6267 1 27.5385C1 29.4502 2.11929 31 3.5 31Z" stroke="white" stroke-linecap="round" stroke-linejoin="round"/>
</svg>
