<svg width="355" height="128" viewBox="0 0 355 128" fill="none" xmlns="http://www.w3.org/2000/svg">
<g filter="url(#filter0_d_116_215)">
<path d="M6 19C6 9.61116 13.6112 2 23 2H93.2917C97.28 2 101.141 3.40225 104.2 5.96146L121.624 20.5385C124.683 23.0977 128.544 24.5 132.532 24.5H234.814H332C341.389 24.5 349 32.1112 349 41.5V101C349 110.389 341.389 118 332 118H23C13.6112 118 6 110.389 6 101V19Z" fill="#CEE2FF"/>
</g>
<path d="M336.5 66.9231C337.881 66.9231 339 65.3733 339 63.4615C339 61.5498 337.881 60 336.5 60C335.119 60 334 61.5498 334 63.4615C334 65.3733 335.119 66.9231 336.5 66.9231Z" stroke="white" stroke-linecap="round" stroke-linejoin="round"/>
<path d="M336.5 78.4615C337.881 78.4615 339 76.9117 339 75C339 73.0882 337.881 71.5385 336.5 71.5385C335.119 71.5385 334 73.0882 334 75C334 76.9117 335.119 78.4615 336.5 78.4615Z" stroke="white" stroke-linecap="round" stroke-linejoin="round"/>
<path d="M336.5 90C337.881 90 339 88.4502 339 86.5385C339 84.6267 337.881 83.0769 336.5 83.0769C335.119 83.0769 334 84.6267 334 86.5385C334 88.4502 335.119 90 336.5 90Z" stroke="white" stroke-linecap="round" stroke-linejoin="round"/>
<defs>
<filter id="filter0_d_116_215" x="0" y="0" width="355" height="128" filterUnits="userSpaceOnUse" color-interpolation-filters="sRGB">
<feFlood flood-opacity="0" result="BackgroundImageFix"/>
<feColorMatrix in="SourceAlpha" type="matrix" values="0 0 0 0 0 0 0 0 0 0 0 0 0 0 0 0 0 0 127 0" result="hardAlpha"/>
<feOffset dy="4"/>
<feGaussianBlur stdDeviation="3"/>
<feComposite in2="hardAlpha" operator="out"/>
<feColorMatrix type="matrix" values="0 0 0 0 0 0 0 0 0 0 0 0 0 0 0 0 0 0 0.2 0"/>
<feBlend mode="normal" in2="BackgroundImageFix" result="effect1_dropShadow_116_215"/>
<feBlend mode="normal" in="SourceGraphic" in2="effect1_dropShadow_116_215" result="shape"/>
</filter>
</defs>
</svg>
