<svg width="354" height="128" viewBox="0 0 354 128" fill="none" xmlns="http://www.w3.org/2000/svg">
<g filter="url(#filter0_d_116_273)">
<path d="M6 19C6 9.61116 13.6112 2 23 2H93.0054C97.0021 2 100.871 3.40815 103.933 5.97715L121.268 20.5229C124.33 23.0919 128.198 24.5 132.195 24.5H234.147H331C340.389 24.5 348 32.1112 348 41.5V101C348 110.389 340.389 118 331 118H23C13.6112 118 6 110.389 6 101V19Z" fill="#FFEAB4"/>
</g>
<path d="M337.01 66.9231C338.224 66.9231 339.208 65.3733 339.208 63.4615C339.208 61.5498 338.224 60 337.01 60C335.796 60 334.812 61.5498 334.812 63.4615C334.812 65.3733 335.796 66.9231 337.01 66.9231Z" stroke="white" stroke-linecap="round" stroke-linejoin="round"/>
<path d="M337.01 78.4615C338.224 78.4615 339.208 76.9117 339.208 75C339.208 73.0882 338.224 71.5385 337.01 71.5385C335.796 71.5385 334.812 73.0882 334.812 75C334.812 76.9117 335.796 78.4615 337.01 78.4615Z" stroke="white" stroke-linecap="round" stroke-linejoin="round"/>
<path d="M337.01 90C338.224 90 339.208 88.4502 339.208 86.5385C339.208 84.6267 338.224 83.0769 337.01 83.0769C335.796 83.0769 334.812 84.6267 334.812 86.5385C334.812 88.4502 335.796 90 337.01 90Z" stroke="white" stroke-linecap="round" stroke-linejoin="round"/>
<defs>
<filter id="filter0_d_116_273" x="0" y="0" width="354" height="128" filterUnits="userSpaceOnUse" color-interpolation-filters="sRGB">
<feFlood flood-opacity="0" result="BackgroundImageFix"/>
<feColorMatrix in="SourceAlpha" type="matrix" values="0 0 0 0 0 0 0 0 0 0 0 0 0 0 0 0 0 0 127 0" result="hardAlpha"/>
<feOffset dy="4"/>
<feGaussianBlur stdDeviation="3"/>
<feComposite in2="hardAlpha" operator="out"/>
<feColorMatrix type="matrix" values="0 0 0 0 0 0 0 0 0 0 0 0 0 0 0 0 0 0 0.2 0"/>
<feBlend mode="normal" in2="BackgroundImageFix" result="effect1_dropShadow_116_273"/>
<feBlend mode="normal" in="SourceGraphic" in2="effect1_dropShadow_116_273" result="shape"/>
</filter>
</defs>
</svg>
