<svg width="194" height="128" viewBox="0 0 194 128" fill="none" xmlns="http://www.w3.org/2000/svg">
<g filter="url(#filter0_d_209_97)">
<path d="M4 32.711C4 30.2497 4.90766 27.875 6.54925 26.0412L26.8798 3.33019C28.7768 1.21108 31.4864 0 34.3306 0H180C185.523 0 190 4.47715 190 10V110C190 115.523 185.523 120 180 120H14C8.47715 120 4 115.523 4 110V32.711Z" fill="#D7D3BE"/>
</g>
<rect opacity="0.5" x="12" y="37.0315" width="43.563" height="44.1165" rx="8" transform="rotate(-45.4252 12 37.0315)" fill="#9B8E08"/>
<path fill-rule="evenodd" clip-rule="evenodd" d="M32.33 24.763C30.5 26.7787 30.5 30.0182 30.5 36.5C30.5 42.9818 30.5 46.2226 32.33 48.2356C34.1625 50.25 37.1075 50.25 43 50.25C48.8925 50.25 51.8387 50.25 53.6688 48.2356C55.5 46.224 55.5 42.9818 55.5 36.5C55.5 30.0182 55.5 26.7774 53.6688 24.763C51.84 22.75 48.8925 22.75 43 22.75C37.1075 22.75 34.1613 22.75 32.33 24.763ZM41.18 30.3359C41.2649 30.2377 41.3313 30.1222 41.3756 29.9958C41.4199 29.8694 41.4411 29.7346 41.438 29.5992C41.4349 29.4638 41.4076 29.3304 41.3577 29.2066C41.3077 29.0828 41.2361 28.971 41.1469 28.8777C41.0577 28.7843 40.9526 28.7112 40.8377 28.6625C40.7228 28.6138 40.6003 28.5905 40.4772 28.5939C40.3541 28.5973 40.2328 28.6273 40.1203 28.6823C40.0077 28.7372 39.9061 28.816 39.8212 28.9141L36.9288 32.2554L36.1788 31.3891C36.0948 31.2871 35.9931 31.2045 35.8797 31.1464C35.7663 31.0882 35.6435 31.0556 35.5185 31.0505C35.3934 31.0454 35.2688 31.0679 35.1517 31.1166C35.0347 31.1653 34.9278 31.2393 34.8371 31.3342C34.7465 31.4291 34.6741 31.543 34.6241 31.6692C34.5742 31.7953 34.5476 31.9312 34.5462 32.0688C34.5447 32.2065 34.5683 32.343 34.6155 32.4705C34.6627 32.5979 34.7327 32.7136 34.8212 32.8109L36.25 34.4609C36.3376 34.562 36.4429 34.6424 36.5595 34.6974C36.6762 34.7524 36.8018 34.7808 36.9288 34.7808C37.0557 34.7808 37.1813 34.7524 37.298 34.6974C37.4146 34.6424 37.5199 34.562 37.6075 34.4609L41.18 30.3359ZM44.25 31.3438C44.0014 31.3438 43.7629 31.4524 43.5871 31.6458C43.4113 31.8392 43.3125 32.1015 43.3125 32.375C43.3125 32.6485 43.4113 32.9108 43.5871 33.1042C43.7629 33.2976 44.0014 33.4062 44.25 33.4062H50.5C50.7486 33.4062 50.9871 33.2976 51.1629 33.1042C51.3387 32.9108 51.4375 32.6485 51.4375 32.375C51.4375 32.1015 51.3387 31.8392 51.1629 31.6458C50.9871 31.4524 50.7486 31.3438 50.5 31.3438H44.25ZM41.1788 39.9609C41.2673 39.8636 41.3373 39.7479 41.3845 39.6205C41.4317 39.493 41.4553 39.3565 41.4538 39.2188C41.4524 39.0812 41.4258 38.9453 41.3759 38.8192C41.3259 38.693 41.2535 38.5791 41.1629 38.4842C41.0722 38.3893 40.9653 38.3153 40.8483 38.2666C40.7312 38.2179 40.6066 38.1954 40.4815 38.2005C40.3565 38.2056 40.2337 38.2382 40.1203 38.2964C40.0069 38.3545 39.9052 38.4371 39.8212 38.5391L36.9288 41.8804L36.1788 41.0141C36.0948 40.9121 35.9931 40.8295 35.8797 40.7714C35.7663 40.7132 35.6435 40.6806 35.5185 40.6755C35.3934 40.6704 35.2688 40.6929 35.1517 40.7416C35.0347 40.7903 34.9278 40.8643 34.8371 40.9592C34.7465 41.0541 34.6741 41.168 34.6241 41.2942C34.5742 41.4203 34.5476 41.5562 34.5462 41.6938C34.5447 41.8315 34.5683 41.968 34.6155 42.0955C34.6627 42.2229 34.7327 42.3386 34.8212 42.4359L36.25 44.0859C36.3376 44.187 36.4429 44.2674 36.5595 44.3224C36.6762 44.3774 36.8018 44.4058 36.9288 44.4058C37.0557 44.4058 37.1813 44.3774 37.298 44.3224C37.4146 44.2674 37.5199 44.187 37.6075 44.0859L41.1788 39.9609ZM44.25 40.9688C44.0014 40.9688 43.7629 41.0774 43.5871 41.2708C43.4113 41.4642 43.3125 41.7265 43.3125 42C43.3125 42.2735 43.4113 42.5358 43.5871 42.7292C43.7629 42.9226 44.0014 43.0312 44.25 43.0312H50.5C50.7486 43.0312 50.9871 42.9226 51.1629 42.7292C51.3387 42.5358 51.4375 42.2735 51.4375 42C51.4375 41.7265 51.3387 41.4642 51.1629 41.2708C50.9871 41.0774 50.7486 40.9688 50.5 40.9688H44.25Z" fill="#9B8E08"/>
<defs>
<filter id="filter0_d_209_97" x="0" y="0" width="194" height="128" filterUnits="userSpaceOnUse" color-interpolation-filters="sRGB">
<feFlood flood-opacity="0" result="BackgroundImageFix"/>
<feColorMatrix in="SourceAlpha" type="matrix" values="0 0 0 0 0 0 0 0 0 0 0 0 0 0 0 0 0 0 127 0" result="hardAlpha"/>
<feOffset dy="4"/>
<feGaussianBlur stdDeviation="2"/>
<feComposite in2="hardAlpha" operator="out"/>
<feColorMatrix type="matrix" values="0 0 0 0 0 0 0 0 0 0 0 0 0 0 0 0 0 0 0.5 0"/>
<feBlend mode="normal" in2="BackgroundImageFix" result="effect1_dropShadow_209_97"/>
<feBlend mode="normal" in="SourceGraphic" in2="effect1_dropShadow_209_97" result="shape"/>
</filter>
</defs>
</svg>
