<svg width="24" height="24" viewBox="0 0 24 24" fill="none" xmlns="http://www.w3.org/2000/svg">
<path d="M22.95 21.5564V9.71032C22.95 9.49396 22.9004 9.28058 22.8052 9.08706C22.7099 8.89354 22.5716 8.72521 22.4013 8.5954L12.7981 1.27873C12.5607 1.0978 12.2718 1 11.975 1C11.6782 1 11.3893 1.0978 11.1519 1.27873L1.54875 8.5954C1.37837 8.72521 1.24008 8.89354 1.14483 9.08706C1.04959 9.28058 1 9.49396 1 9.71032V21.5564C1 21.926 1.14454 22.2805 1.40181 22.5418C1.65909 22.8032 2.00803 22.95 2.37188 22.95H7.85938C8.22322 22.95 8.57216 22.8032 8.82944 22.5418C9.08671 22.2805 9.23125 21.926 9.23125 21.5564V17.3754C9.23125 17.0058 9.37579 16.6513 9.63306 16.3899C9.89034 16.1286 10.2393 15.9817 10.6031 15.9817H13.3469C13.7107 15.9817 14.0597 16.1286 14.3169 16.3899C14.5742 16.6513 14.7188 17.0058 14.7188 17.3754V21.5564C14.7188 21.926 14.8633 22.2805 15.1206 22.5418C15.3778 22.8032 15.7268 22.95 16.0906 22.95H21.5781C21.942 22.95 22.2909 22.8032 22.5482 22.5418C22.8055 22.2805 22.95 21.926 22.95 21.5564Z" stroke="black" stroke-width="2" stroke-linecap="round" stroke-linejoin="round"/>
</svg>
