<svg width="36" height="41" viewBox="0 0 36 41" fill="none" xmlns="http://www.w3.org/2000/svg">
<g clip-path="url(#clip0_80_1089)">
<path d="M10.316 8.17592L17.9981 1.64618L25.6801 8.17592V18.4369C25.6801 18.9317 25.5003 19.4063 25.1801 19.7562C24.86 20.106 24.4258 20.3026 23.973 20.3026H12.0232C11.5704 20.3026 11.1362 20.106 10.816 19.7562C10.4959 19.4063 10.316 18.9317 10.316 18.4369V8.17592Z" stroke="black" stroke-width="2.19487" stroke-linecap="round" stroke-linejoin="round"/>
<path d="M15.8032 19.2051V11.5231H20.193V19.2051" fill="#F2F2FF"/>
<path d="M15.8032 19.2051V11.5231H20.193V19.2051" stroke="black" stroke-width="2.19487" stroke-linecap="square" stroke-linejoin="round"/>
</g>
<path d="M8.09573 38.4359H6.35312V34.6742H2.66857V38.4359H0.932392V29.6586H2.66857V33.2274H6.35312V29.6586H8.09573V38.4359ZM12.7191 31.4912C13.6965 31.4912 14.4596 31.7934 15.0083 32.3979C15.5613 32.998 15.8378 33.7825 15.8378 34.7514V35.2529C15.8378 36.2646 15.5656 37.0684 15.0212 37.6643C14.4767 38.2602 13.7094 38.5581 12.7191 38.5581C11.7288 38.5581 10.9594 38.2602 10.4106 37.6643C9.8662 37.0684 9.59399 36.2668 9.59399 35.2594V34.7578C9.59399 33.789 9.86835 33.0023 10.4171 32.3979C10.9701 31.7934 11.7374 31.4912 12.7191 31.4912ZM13.7737 33.3367C13.5379 32.9809 13.1864 32.803 12.7191 32.803C12.2518 32.803 11.8982 32.983 11.6581 33.3431C11.4223 33.6989 11.3044 34.1683 11.3044 34.7514V35.2786C11.3044 35.8531 11.4223 36.3246 11.6581 36.6933C11.8939 37.0577 12.2476 37.2399 12.7191 37.2399C13.1864 37.2399 13.5379 37.0577 13.7737 36.6933C14.0095 36.3289 14.1273 35.8574 14.1273 35.2786V34.7514C14.1273 34.1641 14.0095 33.6925 13.7737 33.3367ZM17.2525 38.4359V31.6134H18.8986V32.5908H18.9886C19.0958 32.3036 19.3037 32.0506 19.6124 31.832C19.921 31.6134 20.309 31.5041 20.7763 31.5041C21.2821 31.5041 21.6958 31.6091 22.0173 31.8191C22.3431 32.0249 22.566 32.31 22.6861 32.6744H22.7568C22.8811 32.3529 23.1233 32.0785 23.4834 31.8513C23.8478 31.6198 24.2979 31.5041 24.8338 31.5041C25.5282 31.5041 26.0727 31.7098 26.4671 32.1214C26.8615 32.5329 27.0587 33.0838 27.0587 33.774V38.4359H25.3675V34.2434C25.3675 33.819 25.2603 33.4932 25.046 33.266C24.8359 33.0345 24.5466 32.9187 24.1779 32.9187C23.8006 32.9187 23.5048 33.0409 23.2905 33.2853C23.0762 33.5296 22.969 33.8704 22.969 34.3077V38.4359H21.3357V34.3077C21.3357 33.8361 21.2264 33.4867 21.0078 33.2595C20.7934 33.0323 20.504 32.9187 20.1397 32.9187C19.7881 32.9187 19.4988 33.0366 19.2716 33.2724C19.0487 33.5039 18.9372 33.8447 18.9372 34.2948V38.4359H17.2525ZM31.5277 38.5581C30.5803 38.5581 29.828 38.273 29.2707 37.7029C28.7134 37.1284 28.4347 36.3268 28.4347 35.2979V34.6742C28.4347 33.6882 28.7112 32.9123 29.2642 32.3464C29.8172 31.7763 30.5482 31.4912 31.457 31.4912C32.3829 31.4912 33.116 31.7827 33.6561 32.3657C34.1963 32.9487 34.4663 33.7332 34.4663 34.7192V35.388H30.0937V35.5744C30.0937 36.0889 30.2266 36.5004 30.4924 36.8091C30.7582 37.1134 31.1076 37.2656 31.5406 37.2656C31.8749 37.2656 32.1557 37.1884 32.3829 37.0341C32.6101 36.8755 32.7602 36.6569 32.833 36.3782H34.402C34.3592 36.6612 34.2691 36.9291 34.132 37.182C33.9991 37.4349 33.819 37.6664 33.5918 37.8765C33.3646 38.0865 33.0731 38.2537 32.7173 38.378C32.3615 38.4981 31.965 38.5581 31.5277 38.5581ZM30.0937 34.3141H32.8266V34.3012C32.8266 33.8554 32.7023 33.4867 32.4537 33.1952C32.205 32.8994 31.8771 32.7515 31.4698 32.7515C31.0626 32.7515 30.7303 32.8994 30.4731 33.1952C30.2202 33.4867 30.0937 33.8554 30.0937 34.3012V34.3141Z" fill="black"/>
<defs>
<clipPath id="clip0_80_1089">
<rect width="21.9487" height="21.9487" fill="white" transform="translate(7.02563)"/>
</clipPath>
</defs>
</svg>
