<svg width="40" height="39" viewBox="0 0 40 39" fill="none" xmlns="http://www.w3.org/2000/svg">
<g filter="url(#filter0_d_9_34)">
<path d="M35 28.1587V12.5079C35 12.2221 34.9322 11.9402 34.802 11.6845C34.6719 11.4288 34.4829 11.2064 34.25 11.0349L21.125 1.36825C20.8004 1.12922 20.4057 1 20 1C19.5943 1 19.1996 1.12922 18.875 1.36825L5.75 11.0349C5.51713 11.2064 5.32813 11.4288 5.19795 11.6845C5.06777 11.9402 5 12.2221 5 12.5079V28.1587C5 28.6471 5.19754 29.1154 5.54918 29.4607C5.90081 29.806 6.37772 30 6.875 30H14.375C14.8723 30 15.3492 29.806 15.7008 29.4607C16.0525 29.1154 16.25 28.6471 16.25 28.1587V22.6349C16.25 22.1466 16.4475 21.6783 16.7992 21.3329C17.1508 20.9876 17.6277 20.7937 18.125 20.7937H21.875C22.3723 20.7937 22.8492 20.9876 23.2008 21.3329C23.5525 21.6783 23.75 22.1466 23.75 22.6349V28.1587C23.75 28.6471 23.9475 29.1154 24.2992 29.4607C24.6508 29.806 25.1277 30 25.625 30H33.125C33.6223 30 34.0992 29.806 34.4508 29.4607C34.8025 29.1154 35 28.6471 35 28.1587Z" stroke="black" stroke-width="2" stroke-linecap="round" stroke-linejoin="round" shape-rendering="crispEdges"/>
</g>
<defs>
<filter id="filter0_d_9_34" x="0" y="0" width="40" height="39" filterUnits="userSpaceOnUse" color-interpolation-filters="sRGB">
<feFlood flood-opacity="0" result="BackgroundImageFix"/>
<feColorMatrix in="SourceAlpha" type="matrix" values="0 0 0 0 0 0 0 0 0 0 0 0 0 0 0 0 0 0 127 0" result="hardAlpha"/>
<feOffset dy="4"/>
<feGaussianBlur stdDeviation="2"/>
<feComposite in2="hardAlpha" operator="out"/>
<feColorMatrix type="matrix" values="0 0 0 0 0 0 0 0 0 0 0 0 0 0 0 0 0 0 0.5 0"/>
<feBlend mode="normal" in2="BackgroundImageFix" result="effect1_dropShadow_9_34"/>
<feBlend mode="normal" in="SourceGraphic" in2="effect1_dropShadow_9_34" result="shape"/>
</filter>
</defs>
</svg>
