<svg width="23" height="22" viewBox="0 0 23 22" fill="none" xmlns="http://www.w3.org/2000/svg">
<path d="M17.7041 4.02869H9.13716C8.59139 4.02869 8.06798 4.24549 7.68206 4.63141C7.29615 5.01732 7.07935 5.54073 7.07935 6.0865V12.1429C7.07935 12.6886 7.29615 13.212 7.68206 13.598C8.06798 13.9839 8.59139 14.2007 9.13716 14.2007H12.0122L16.3807 16.1785V14.2011H17.7041C18.2498 14.2011 18.7732 13.9843 19.1592 13.5984C19.5451 13.2125 19.7619 12.6891 19.7619 12.1433V6.0865C19.7619 5.54073 19.5451 5.01732 19.1592 4.63141C18.7732 4.24549 18.2498 4.02869 17.7041 4.02869Z" stroke="black" stroke-width="0.457292" stroke-linecap="round" stroke-linejoin="round"/>
<path d="M11.3798 14.252V15.1181C11.3798 15.9229 10.7304 16.5723 9.93018 16.5723H8.06443L5.16063 17.9213V16.5723H4.29178C3.49152 16.5723 2.84216 15.9229 2.84216 15.1181V11.1305C2.84216 10.3303 3.49152 9.68091 4.29178 9.68091H6.99894" stroke="black" stroke-width="0.457292" stroke-linecap="round" stroke-linejoin="round"/>
</svg>
