<svg width="395" height="106" viewBox="0 0 395 106" fill="none" xmlns="http://www.w3.org/2000/svg">
<g filter="url(#filter0_d_140_218)">
<path d="M14.616 0H97.611C99.5039 0 101.358 0.537255 102.958 1.54931L109.641 5.77779C111.241 6.78985 113.095 7.3271 114.988 7.3271H274.222C276.115 7.3271 277.969 6.78985 279.569 5.77779L286.252 1.54931C287.852 0.537256 289.706 0 291.599 0H379.419H386V0C388.761 0 391 2.23857 391 5V10.9907V84.2617V88C391 93.5228 386.523 98 381 98H379.419H14.616H14C8.47715 98 4 93.5228 4 88V84.2617V10.9907V10C4 4.47715 8.47715 0 14 0H14.616Z" fill="#CEE2FF"/>
</g>
<path d="M14.9062 16.6875C15.7765 16.6875 16.6111 16.4323 17.2264 15.9781C17.8418 15.524 18.1875 14.9079 18.1875 14.2656C18.1875 13.6233 17.8418 13.0073 17.2264 12.5531C16.6111 12.0989 15.7765 11.8438 14.9062 11.8438C14.036 11.8438 13.2014 12.0989 12.5861 12.5531C11.9707 13.0073 11.625 13.6233 11.625 14.2656C11.625 14.9079 11.9707 15.524 12.5861 15.9781C13.2014 16.4323 14.036 16.6875 14.9062 16.6875ZM14.9062 24.9219C15.7765 24.9219 16.6111 24.6667 17.2264 24.2125C17.8418 23.7583 18.1875 23.1423 18.1875 22.5C18.1875 21.8577 17.8418 21.2417 17.2264 20.7875C16.6111 20.3333 15.7765 20.0781 14.9062 20.0781C14.036 20.0781 13.2014 20.3333 12.5861 20.7875C11.9707 21.2417 11.625 21.8577 11.625 22.5C11.625 23.1423 11.9707 23.7583 12.5861 24.2125C13.2014 24.6667 14.036 24.9219 14.9062 24.9219ZM27.375 30.7344C27.375 31.3767 27.0293 31.9927 26.4139 32.4469C25.7986 32.9011 24.964 33.1562 24.0938 33.1562C23.2235 33.1562 22.3889 32.9011 21.7736 32.4469C21.1582 31.9927 20.8125 31.3767 20.8125 30.7344C20.8125 30.0921 21.1582 29.476 21.7736 29.0219C22.3889 28.5677 23.2235 28.3125 24.0938 28.3125C24.964 28.3125 25.7986 28.5677 26.4139 29.0219C27.0293 29.476 27.375 30.0921 27.375 30.7344ZM24.0938 12.8125C23.5716 12.8125 23.0708 12.9656 22.7016 13.2381C22.3324 13.5106 22.125 13.8802 22.125 14.2656C22.125 14.651 22.3324 15.0206 22.7016 15.2931C23.0708 15.5657 23.5716 15.7188 24.0938 15.7188H46.4062C46.9284 15.7188 47.4292 15.5657 47.7984 15.2931C48.1676 15.0206 48.375 14.651 48.375 14.2656C48.375 13.8802 48.1676 13.5106 47.7984 13.2381C47.4292 12.9656 46.9284 12.8125 46.4062 12.8125H24.0938ZM22.125 22.5C22.125 22.1146 22.3324 21.745 22.7016 21.4725C23.0708 21.2 23.5716 21.0469 24.0938 21.0469H46.4062C46.9284 21.0469 47.4292 21.2 47.7984 21.4725C48.1676 21.745 48.375 22.1146 48.375 22.5C48.375 22.8854 48.1676 23.255 47.7984 23.5275C47.4292 23.8 46.9284 23.9531 46.4062 23.9531H24.0938C23.5716 23.9531 23.0708 23.8 22.7016 23.5275C22.3324 23.255 22.125 22.8854 22.125 22.5ZM33.2812 29.2812C32.7591 29.2812 32.2583 29.4343 31.8891 29.7069C31.5199 29.9794 31.3125 30.349 31.3125 30.7344C31.3125 31.1198 31.5199 31.4894 31.8891 31.7619C32.2583 32.0344 32.7591 32.1875 33.2812 32.1875H46.4062C46.9284 32.1875 47.4292 32.0344 47.7984 31.7619C48.1676 31.4894 48.375 31.1198 48.375 30.7344C48.375 30.349 48.1676 29.9794 47.7984 29.7069C47.4292 29.4343 46.9284 29.2812 46.4062 29.2812H33.2812Z" fill="#0F31A9"/>
<path d="M372.5 39.9231C373.881 39.9231 375 38.3733 375 36.4615C375 34.5498 373.881 33 372.5 33C371.119 33 370 34.5498 370 36.4615C370 38.3733 371.119 39.9231 372.5 39.9231Z" stroke="white" stroke-linecap="round" stroke-linejoin="round"/>
<path d="M372.5 51.4615C373.881 51.4615 375 49.9117 375 48C375 46.0882 373.881 44.5385 372.5 44.5385C371.119 44.5385 370 46.0882 370 48C370 49.9117 371.119 51.4615 372.5 51.4615Z" stroke="white" stroke-linecap="round" stroke-linejoin="round"/>
<path d="M372.5 63C373.881 63 375 61.4502 375 59.5385C375 57.6267 373.881 56.0769 372.5 56.0769C371.119 56.0769 370 57.6267 370 59.5385C370 61.4502 371.119 63 372.5 63Z" stroke="white" stroke-linecap="round" stroke-linejoin="round"/>
<defs>
<filter id="filter0_d_140_218" x="0" y="0" width="395" height="106" filterUnits="userSpaceOnUse" color-interpolation-filters="sRGB">
<feFlood flood-opacity="0" result="BackgroundImageFix"/>
<feColorMatrix in="SourceAlpha" type="matrix" values="0 0 0 0 0 0 0 0 0 0 0 0 0 0 0 0 0 0 127 0" result="hardAlpha"/>
<feOffset dy="4"/>
<feGaussianBlur stdDeviation="2"/>
<feComposite in2="hardAlpha" operator="out"/>
<feColorMatrix type="matrix" values="0 0 0 0 0 0 0 0 0 0 0 0 0 0 0 0 0 0 0.5 0"/>
<feBlend mode="normal" in2="BackgroundImageFix" result="effect1_dropShadow_140_218"/>
<feBlend mode="normal" in="SourceGraphic" in2="effect1_dropShadow_140_218" result="shape"/>
</filter>
</defs>
</svg>
