<svg width="188" height="262" viewBox="0 0 188 262" fill="none" xmlns="http://www.w3.org/2000/svg">
<g filter="url(#filter0_d_140_220)">
<path d="M4 17.4303C4 7.87511 11.8726 0.196816 21.4249 0.435622L39.0154 0.875385C42.1345 0.953362 45.0138 2.56673 46.7087 5.18622V5.18622C48.4491 7.87594 51.4344 9.5 54.6381 9.5H95.5H131.882C135.379 9.5 138.632 7.70697 140.5 4.75V4.75C142.368 1.79303 145.621 0 149.118 0H167C176.389 0 184 7.61116 184 17V237C184 246.389 176.389 254 167 254H21C11.6112 254 4 246.389 4 237V17.4303Z" fill="#AFE69C"/>
</g>
<path d="M15.9062 25.6875C16.7765 25.6875 17.6111 25.4323 18.2264 24.9781C18.8418 24.524 19.1875 23.9079 19.1875 23.2656C19.1875 22.6233 18.8418 22.0073 18.2264 21.5531C17.6111 21.0989 16.7765 20.8438 15.9062 20.8438C15.036 20.8438 14.2014 21.0989 13.5861 21.5531C12.9707 22.0073 12.625 22.6233 12.625 23.2656C12.625 23.9079 12.9707 24.524 13.5861 24.9781C14.2014 25.4323 15.036 25.6875 15.9062 25.6875ZM15.9062 33.9219C16.7765 33.9219 17.6111 33.6667 18.2264 33.2125C18.8418 32.7583 19.1875 32.1423 19.1875 31.5C19.1875 30.8577 18.8418 30.2417 18.2264 29.7875C17.6111 29.3333 16.7765 29.0781 15.9062 29.0781C15.036 29.0781 14.2014 29.3333 13.5861 29.7875C12.9707 30.2417 12.625 30.8577 12.625 31.5C12.625 32.1423 12.9707 32.7583 13.5861 33.2125C14.2014 33.6667 15.036 33.9219 15.9062 33.9219ZM28.375 39.7344C28.375 40.3767 28.0293 40.9927 27.4139 41.4469C26.7986 41.9011 25.964 42.1562 25.0938 42.1562C24.2235 42.1562 23.3889 41.9011 22.7736 41.4469C22.1582 40.9927 21.8125 40.3767 21.8125 39.7344C21.8125 39.0921 22.1582 38.476 22.7736 38.0219C23.3889 37.5677 24.2235 37.3125 25.0938 37.3125C25.964 37.3125 26.7986 37.5677 27.4139 38.0219C28.0293 38.476 28.375 39.0921 28.375 39.7344ZM25.0938 21.8125C24.5716 21.8125 24.0708 21.9656 23.7016 22.2381C23.3324 22.5106 23.125 22.8802 23.125 23.2656C23.125 23.651 23.3324 24.0206 23.7016 24.2931C24.0708 24.5657 24.5716 24.7188 25.0938 24.7188H47.4062C47.9284 24.7188 48.4292 24.5657 48.7984 24.2931C49.1676 24.0206 49.375 23.651 49.375 23.2656C49.375 22.8802 49.1676 22.5106 48.7984 22.2381C48.4292 21.9656 47.9284 21.8125 47.4062 21.8125H25.0938ZM23.125 31.5C23.125 31.1146 23.3324 30.745 23.7016 30.4725C24.0708 30.2 24.5716 30.0469 25.0938 30.0469H47.4062C47.9284 30.0469 48.4292 30.2 48.7984 30.4725C49.1676 30.745 49.375 31.1146 49.375 31.5C49.375 31.8854 49.1676 32.255 48.7984 32.5275C48.4292 32.8 47.9284 32.9531 47.4062 32.9531H25.0938C24.5716 32.9531 24.0708 32.8 23.7016 32.5275C23.3324 32.255 23.125 31.8854 23.125 31.5ZM34.2812 38.2812C33.7591 38.2812 33.2583 38.4343 32.8891 38.7069C32.5199 38.9794 32.3125 39.349 32.3125 39.7344C32.3125 40.1198 32.5199 40.4894 32.8891 40.7619C33.2583 41.0344 33.7591 41.1875 34.2812 41.1875H47.4062C47.9284 41.1875 48.4292 41.0344 48.7984 40.7619C49.1676 40.4894 49.375 40.1198 49.375 39.7344C49.375 39.349 49.1676 38.9794 48.7984 38.7069C48.4292 38.4343 47.9284 38.2812 47.4062 38.2812H34.2812Z" fill="#0FA958"/>
<defs>
<filter id="filter0_d_140_220" x="0" y="0" width="188" height="262" filterUnits="userSpaceOnUse" color-interpolation-filters="sRGB">
<feFlood flood-opacity="0" result="BackgroundImageFix"/>
<feColorMatrix in="SourceAlpha" type="matrix" values="0 0 0 0 0 0 0 0 0 0 0 0 0 0 0 0 0 0 127 0" result="hardAlpha"/>
<feOffset dy="4"/>
<feGaussianBlur stdDeviation="2"/>
<feComposite in2="hardAlpha" operator="out"/>
<feColorMatrix type="matrix" values="0 0 0 0 0 0 0 0 0 0 0 0 0 0 0 0 0 0 0.5 0"/>
<feBlend mode="normal" in2="BackgroundImageFix" result="effect1_dropShadow_140_220"/>
<feBlend mode="normal" in="SourceGraphic" in2="effect1_dropShadow_140_220" result="shape"/>
</filter>
</defs>
</svg>
