<svg width="188" height="262" viewBox="0 0 188 262" fill="none" xmlns="http://www.w3.org/2000/svg">
<g filter="url(#filter0_d_9_35)">
<path d="M4 17.4303C4 7.87511 11.8726 0.196816 21.4249 0.435622L39.0154 0.875385C42.1345 0.953362 45.0138 2.56673 46.7087 5.18622C48.4491 7.87594 51.4344 9.5 54.6381 9.5H95.5H131.882C135.379 9.5 138.632 7.70697 140.5 4.75C142.368 1.79303 145.621 0 149.118 0H167C176.389 0 184 7.61116 184 17V237C184 246.389 176.389 254 167 254H21C11.6112 254 4 246.389 4 237V17.4303Z" fill="#AFE69C"/>
</g>
<defs>
<filter id="filter0_d_9_35" x="0" y="0" width="188" height="262" filterUnits="userSpaceOnUse" color-interpolation-filters="sRGB">
<feFlood flood-opacity="0" result="BackgroundImageFix"/>
<feColorMatrix in="SourceAlpha" type="matrix" values="0 0 0 0 0 0 0 0 0 0 0 0 0 0 0 0 0 0 127 0" result="hardAlpha"/>
<feOffset dy="4"/>
<feGaussianBlur stdDeviation="2"/>
<feComposite in2="hardAlpha" operator="out"/>
<feColorMatrix type="matrix" values="0 0 0 0 0 0 0 0 0 0 0 0 0 0 0 0 0 0 0.5 0"/>
<feBlend mode="normal" in2="BackgroundImageFix" result="effect1_dropShadow_9_35"/>
<feBlend mode="normal" in="SourceGraphic" in2="effect1_dropShadow_9_35" result="shape"/>
</filter>
</defs>
</svg>
