<svg width="23" height="22" viewBox="0 0 23 22" fill="none" xmlns="http://www.w3.org/2000/svg">
<path d="M15.6809 7.83928L11.523 3.65833L7.31903 7.83928M11.523 3.68028V16.2012M8.36427 10.975H6.2738C5.71937 10.975 5.18765 11.1952 4.79561 11.5873C4.40356 11.9793 4.18332 12.511 4.18332 13.0655V17.2464C4.18332 17.8008 4.40356 18.3326 4.79561 18.7246C5.18765 19.1167 5.71937 19.3369 6.2738 19.3369H16.7262C17.2806 19.3369 17.8123 19.1167 18.2044 18.7246C18.5964 18.3326 18.8167 17.8008 18.8167 17.2464V13.0655C18.8167 12.511 18.5964 11.9793 18.2044 11.5873C17.8123 11.1952 17.2806 10.975 16.7262 10.975H14.6357" stroke="black" stroke-linecap="round" stroke-linejoin="round"/>
</svg>
