<svg width="42" height="31" viewBox="0 0 42 31" fill="none" xmlns="http://www.w3.org/2000/svg">
<path d="M5.90625 9.6875C6.77649 9.6875 7.61109 9.43234 8.22644 8.97815C8.8418 8.52396 9.1875 7.90795 9.1875 7.26562C9.1875 6.6233 8.8418 6.00729 8.22644 5.5531C7.61109 5.09891 6.77649 4.84375 5.90625 4.84375C5.03601 4.84375 4.20141 5.09891 3.58606 5.5531C2.9707 6.00729 2.625 6.6233 2.625 7.26562C2.625 7.90795 2.9707 8.52396 3.58606 8.97815C4.20141 9.43234 5.03601 9.6875 5.90625 9.6875ZM5.90625 17.9219C6.77649 17.9219 7.61109 17.6667 8.22644 17.2125C8.8418 16.7583 9.1875 16.1423 9.1875 15.5C9.1875 14.8577 8.8418 14.2417 8.22644 13.7875C7.61109 13.3333 6.77649 13.0781 5.90625 13.0781C5.03601 13.0781 4.20141 13.3333 3.58606 13.7875C2.9707 14.2417 2.625 14.8577 2.625 15.5C2.625 16.1423 2.9707 16.7583 3.58606 17.2125C4.20141 17.6667 5.03601 17.9219 5.90625 17.9219ZM18.375 23.7344C18.375 24.3767 18.0293 24.9927 17.4139 25.4469C16.7986 25.9011 15.964 26.1562 15.0938 26.1562C14.2235 26.1562 13.3889 25.9011 12.7736 25.4469C12.1582 24.9927 11.8125 24.3767 11.8125 23.7344C11.8125 23.0921 12.1582 22.476 12.7736 22.0219C13.3889 21.5677 14.2235 21.3125 15.0938 21.3125C15.964 21.3125 16.7986 21.5677 17.4139 22.0219C18.0293 22.476 18.375 23.0921 18.375 23.7344ZM15.0938 5.8125C14.5716 5.8125 14.0708 5.9656 13.7016 6.23811C13.3324 6.51062 13.125 6.88023 13.125 7.26562C13.125 7.65102 13.3324 8.02063 13.7016 8.29314C14.0708 8.56565 14.5716 8.71875 15.0938 8.71875H37.4062C37.9284 8.71875 38.4292 8.56565 38.7984 8.29314C39.1676 8.02063 39.375 7.65102 39.375 7.26562C39.375 6.88023 39.1676 6.51062 38.7984 6.23811C38.4292 5.9656 37.9284 5.8125 37.4062 5.8125H15.0938ZM13.125 15.5C13.125 15.1146 13.3324 14.745 13.7016 14.4725C14.0708 14.2 14.5716 14.0469 15.0938 14.0469H37.4062C37.9284 14.0469 38.4292 14.2 38.7984 14.4725C39.1676 14.745 39.375 15.1146 39.375 15.5C39.375 15.8854 39.1676 16.255 38.7984 16.5275C38.4292 16.8 37.9284 16.9531 37.4062 16.9531H15.0938C14.5716 16.9531 14.0708 16.8 13.7016 16.5275C13.3324 16.255 13.125 15.8854 13.125 15.5ZM24.2812 22.2812C23.7591 22.2812 23.2583 22.4343 22.8891 22.7069C22.5199 22.9794 22.3125 23.349 22.3125 23.7344C22.3125 24.1198 22.5199 24.4894 22.8891 24.7619C23.2583 25.0344 23.7591 25.1875 24.2812 25.1875H37.4062C37.9284 25.1875 38.4292 25.0344 38.7984 24.7619C39.1676 24.4894 39.375 24.1198 39.375 23.7344C39.375 23.349 39.1676 22.9794 38.7984 22.7069C38.4292 22.4343 37.9284 22.2812 37.4062 22.2812H24.2812Z" fill="#0F31A9"/>
</svg>
