<svg width="23" height="22" viewBox="0 0 23 22" fill="none" xmlns="http://www.w3.org/2000/svg">
<path d="M21.4369 2.05335L15.9449 2.05337V0.686058C15.9449 0.307011 15.638 0 15.259 0C14.8801 0 14.5731 0.307011 14.5731 0.686058V2.05303H9.08595V0.686058C9.08595 0.307011 8.77901 0 8.40006 0C8.0211 0 7.71416 0.307011 7.71416 0.686058V2.05303H2.23178C1.47421 2.05303 0.859985 2.66739 0.859985 3.42515V20.5766C0.859985 21.3343 1.47421 21.9487 2.23178 21.9487H21.4369C22.1945 21.9487 22.8087 21.3343 22.8087 20.5766V3.42515C22.8087 2.66772 22.1945 2.05335 21.4369 2.05335ZM21.4369 20.5766H2.23178V3.42515H7.71416V4.11635C7.71416 4.49538 8.0211 4.80241 8.40006 4.80241C8.77901 4.80241 9.08595 4.49538 9.08595 4.11635V3.42549H14.5731V4.11669C14.5731 4.49574 14.8801 4.80275 15.259 4.80275C15.638 4.80275 15.9449 4.49574 15.9449 4.11669V3.42549H21.4369V20.5766ZM16.6356 10.9721H18.0074C18.386 10.9721 18.6933 10.6648 18.6933 10.286V8.91393C18.6933 8.53523 18.386 8.22787 18.0074 8.22787H16.6356C16.257 8.22787 15.9497 8.53523 15.9497 8.91393V10.286C15.9497 10.6648 16.257 10.9721 16.6356 10.9721ZM16.6356 16.4602H18.0074C18.386 16.4602 18.6933 16.1532 18.6933 15.7742V14.4021C18.6933 14.0234 18.386 13.716 18.0074 13.716H16.6356C16.257 13.716 15.9497 14.0234 15.9497 14.4021V15.7742C15.9497 16.1536 16.257 16.4602 16.6356 16.4602ZM12.5202 13.716H11.1484C10.7698 13.716 10.4625 14.0234 10.4625 14.4021V15.7742C10.4625 16.1532 10.7698 16.4602 11.1484 16.4602H12.5202C12.8989 16.4602 13.2061 16.1532 13.2061 15.7742V14.4021C13.2061 14.0237 12.8989 13.716 12.5202 13.716ZM12.5202 8.22787H11.1484C10.7698 8.22787 10.4625 8.53523 10.4625 8.91393V10.286C10.4625 10.6648 10.7698 10.9721 11.1484 10.9721H12.5202C12.8989 10.9721 13.2061 10.6648 13.2061 10.286V8.91393C13.2061 8.53489 12.8989 8.22787 12.5202 8.22787ZM7.03306 8.22787H5.66127C5.28265 8.22787 4.97537 8.53523 4.97537 8.91393V10.286C4.97537 10.6648 5.28265 10.9721 5.66127 10.9721H7.03306C7.41168 10.9721 7.71896 10.6648 7.71896 10.286V8.91393C7.71896 8.53489 7.41168 8.22787 7.03306 8.22787ZM7.03306 13.716H5.66127C5.28265 13.716 4.97537 14.0234 4.97537 14.4021V15.7742C4.97537 16.1532 5.28265 16.4602 5.66127 16.4602H7.03306C7.41168 16.4602 7.71896 16.1532 7.71896 15.7742V14.4021C7.71896 14.0237 7.41168 13.716 7.03306 13.716Z" fill="black"/>
</svg>
