<svg width="38" height="23" viewBox="0 0 38 23" fill="none" xmlns="http://www.w3.org/2000/svg">
<path d="M3.90625 5.6875C4.77649 5.6875 5.61109 5.43234 6.22644 4.97815C6.8418 4.52396 7.1875 3.90795 7.1875 3.26562C7.1875 2.6233 6.8418 2.00729 6.22644 1.5531C5.61109 1.09891 4.77649 0.84375 3.90625 0.84375C3.03601 0.84375 2.20141 1.09891 1.58606 1.5531C0.970702 2.00729 0.625 2.6233 0.625 3.26562C0.625 3.90795 0.970702 4.52396 1.58606 4.97815C2.20141 5.43234 3.03601 5.6875 3.90625 5.6875ZM3.90625 13.9219C4.77649 13.9219 5.61109 13.6667 6.22644 13.2125C6.8418 12.7583 7.1875 12.1423 7.1875 11.5C7.1875 10.8577 6.8418 10.2417 6.22644 9.78748C5.61109 9.33329 4.77649 9.07812 3.90625 9.07812C3.03601 9.07812 2.20141 9.33329 1.58606 9.78748C0.970702 10.2417 0.625 10.8577 0.625 11.5C0.625 12.1423 0.970702 12.7583 1.58606 13.2125C2.20141 13.6667 3.03601 13.9219 3.90625 13.9219ZM16.375 19.7344C16.375 20.3767 16.0293 20.9927 15.4139 21.4469C14.7986 21.9011 13.964 22.1562 13.0938 22.1562C12.2235 22.1562 11.3889 21.9011 10.7736 21.4469C10.1582 20.9927 9.8125 20.3767 9.8125 19.7344C9.8125 19.0921 10.1582 18.476 10.7736 18.0219C11.3889 17.5677 12.2235 17.3125 13.0938 17.3125C13.964 17.3125 14.7986 17.5677 15.4139 18.0219C16.0293 18.476 16.375 19.0921 16.375 19.7344ZM13.0938 1.8125C12.5716 1.8125 12.0708 1.9656 11.7016 2.23811C11.3324 2.51062 11.125 2.88023 11.125 3.26562C11.125 3.65102 11.3324 4.02063 11.7016 4.29314C12.0708 4.56565 12.5716 4.71875 13.0938 4.71875H35.4062C35.9284 4.71875 36.4292 4.56565 36.7984 4.29314C37.1676 4.02063 37.375 3.65102 37.375 3.26562C37.375 2.88023 37.1676 2.51062 36.7984 2.23811C36.4292 1.9656 35.9284 1.8125 35.4062 1.8125H13.0938ZM11.125 11.5C11.125 11.1146 11.3324 10.745 11.7016 10.4725C12.0708 10.2 12.5716 10.0469 13.0938 10.0469H35.4062C35.9284 10.0469 36.4292 10.2 36.7984 10.4725C37.1676 10.745 37.375 11.1146 37.375 11.5C37.375 11.8854 37.1676 12.255 36.7984 12.5275C36.4292 12.8 35.9284 12.9531 35.4062 12.9531H13.0938C12.5716 12.9531 12.0708 12.8 11.7016 12.5275C11.3324 12.255 11.125 11.8854 11.125 11.5ZM22.2812 18.2812C21.7591 18.2812 21.2583 18.4343 20.8891 18.7069C20.5199 18.9794 20.3125 19.349 20.3125 19.7344C20.3125 20.1198 20.5199 20.4894 20.8891 20.7619C21.2583 21.0344 21.7591 21.1875 22.2812 21.1875H35.4062C35.9284 21.1875 36.4292 21.0344 36.7984 20.7619C37.1676 20.4894 37.375 20.1198 37.375 19.7344C37.375 19.349 37.1676 18.9794 36.7984 18.7069C36.4292 18.4343 35.9284 18.2812 35.4062 18.2812H22.2812Z" fill="#0FA958"/>
</svg>
