<svg xmlns="http://www.w3.org/2000/svg" viewBox="0 0 48 48"><path fill="#FFC107" d="M43.6 20.5H42V20H24v8h11.3C33.7 32 29.3 35 24 35c-6.6 0-12-5.4-12-12s5.4-12 12-12c3 0 5.7 1.1 7.8 2.9l5.7-5.7C34.6 5.3 29.6 3 24 3 12.1 3 4 9.4 6.3 14.7z"/><path fill="#4CAF50" d="M24 45c5.7 0 10.5-1.9 14-5l-6.6-5.4C29.8 35.9 27.1 37 24 37c-5.3 0-9.8-3.4-11.4-8h-6.9v5.1C9.1 40.6 16 45 24 45z"/><path fill="#1976D2" d="M43.6 20.5H42V20H24v8h11.3C34.6 31 30.9 35 24 35c-5.3 0-9.8-3.4-11.4-8H5.7C7.3 36.6 14.2 41 24 41c10.5 0 19.3-7.7 21-17.5l-1.4-7z"/><path fill="#FF3D00" d="M5.7 22.7C5.3 21.5 5 20.3 5 19c0-2.4.6-4.6 1.6-6.6l6.7 4.8C12.1 18.9 12 19.9 12 21c0 1.2.2 2.3.6 3.3L5.7 22.7z"/></svg>