<svg xmlns="http://www.w3.org/2000/svg" viewBox="0 0 48 48"><path fill="#FFC107" d="M43.6 20.5H42V20H24v8h11.3C33.7 32 29.3 35 24 35c-6.6 0-12-5.4-12-12s5.4-12 12-12c3 0 5.7 1.1 7.8 2.9l5.7-5.7C34.6 5.3 29.6 3 24 3 12.4 3 3 12.4 3 24s9.4 21 21 21c10.5 0 19.3-7.6 21-17.5l-1.4-7z"/><path fill="#FF3D00" d="M6.3 14.7l6.6 4.8C14.6 16.9 18.9 14 24 14c3 0 5.7 1.1 7.8 2.9l5.7-5.7C34.6 5.3 29.6 3 24 3 16.1 3 9.3 7.1 6.3 14.7z"/><path fill="#4CAF50" d="M24 45c5.2 0 10-2 13.6-5.3l-6.3-5.2C29.5 35.5 26.9 36 24 36c-5.2 0-9.6-3.3-11.2-7.9l-6.4 4.9C9.2 39.9 16 45 24 45z"/><path fill="#1976D2" d="M43.6 20.5H42V20H24v8h11.3C34.9 31.6 30 36 24 36c-2.9 0-5.5-0.5-7.6-1.5l-6.4 4.9C13 42.7 18.1 45 24 45c10.5 0 19.3-7.6 21-17.5l-1.4-7z"/></svg>